<svg xmlns="http://www.w3.org/2000/svg" width="271.39" height="35.7" viewBox="0 0 271.39 35.7"><g id="Layer_2" data-name="Layer 2"><g id="レイヤー_1" data-name="レイヤー 1"><path d="M185.1,12.9V11.53a1.53,1.53,0,0,1,1.74-1.73c1.33,0,2,.43,2,1.73V12.9h3.94c.57,0,1.9,0,1.9,1.56,0,1.21-.44,1.8-1.9,1.8h-3.94v2.23h4.56c.6,0,1.9.05,1.9,1.56,0,1.19-.44,1.8-1.9,1.8h-3.33a16.62,16.62,0,0,0,4.53,5.45c.68.59.89.94.89,1.44a2.26,2.26,0,0,1-2,2.15c-1.85,0-4-3.81-4.61-5v4.83a1.53,1.53,0,0,1-1.74,1.73c-1.3,0-2-.43-2-1.73V25.8a17.24,17.24,0,0,1-2.53,3.75c-.75.85-1.33,1.32-2,1.32a2.24,2.24,0,0,1-2.19-2.08c0-.67.11-.76,2-2.42a16.92,16.92,0,0,0,3.43-4.52h-3.23a2.58,2.58,0,0,1-.57-.05c.65.74.89,1,.89,1.57a1.57,1.57,0,0,1-1.59,1.49c-.55,0-1.12-.29-1.93-1.83v7.65a1.51,1.51,0,0,1-1.67,1.73c-1.22,0-1.92-.33-1.92-1.73V24.93c-.63,1.42-1.15,2-1.93,2-1.12,0-1.72-1.23-1.72-2,0-.62.08-.74,1.27-2.56a17.89,17.89,0,0,0,2.32-5.07h-1.27c-.55,0-1.9,0-1.9-1.53,0-1.16.39-1.8,1.9-1.8h1.33V11.5c0-.85.2-1.7,1.79-1.7,1.12,0,1.8.38,1.8,1.7V14h.86a1.43,1.43,0,0,1,1.41.64,11.71,11.71,0,0,0,1.33-2.92c.28-.85.49-1.49,1.61-1.49.83,0,1.85.5,1.85,1.42a4.14,4.14,0,0,1-.31,1.28Zm-2.55,3.36c-1,1.68-1.36,2-2.11,2a2.18,2.18,0,0,1-1.8-1,3,3,0,0,1-.47,0h-.86v.95a14.42,14.42,0,0,0,1.3,2c0-.95.26-1.73,1.9-1.73h4.59V16.26Z"/><path d="M200.77,22.66h-2.69c-.73,0-1.87-.17-1.87-1.64,0-1.16.44-1.82,1.87-1.82h9.35c.68,0,1.88.14,1.88,1.66,0,1.23-.57,1.8-1.88,1.8h-2.68v4.75c.63-.07,3.28-.49,3.83-.49A1.57,1.57,0,0,1,210,28.69c0,1.35-.86,1.52-2.81,1.87-3.52.64-9,1.31-9.77,1.31-1.64,0-1.75-1.73-1.75-2,0-1.35,1-1.54,1.77-1.63l3.29-.34Zm-3-5.76c-1.2,0-1.95-.49-1.95-1.63s.47-1.8,1.95-1.8h11.31c0-.24,0-1.73,0-1.78,0-.8,0-1.94,2-1.94,1,0,2,.26,2.11,1.3,0,.34,0,2,0,2.42h2.34a9.25,9.25,0,0,1-.62-.88c-.55-.85-.63-.94-.63-1.32,0-1.16,1.56-1.4,2.16-1.4,1.46,0,2.53,2,2.53,2.7a1.08,1.08,0,0,1-.65.9h.36c1.07,0,1.93.4,1.93,1.63s-.49,1.8-1.93,1.8h-5.39a27.08,27.08,0,0,0,1.59,9.45c0,.07.65,1.51,1.46,1.51.57,0,.88-.56,1.15-1a1.59,1.59,0,0,1,1.51-.93A1.77,1.77,0,0,1,221,27.7a4.62,4.62,0,0,1-1.46,3.19,4.06,4.06,0,0,1-3,1.4c-3.73,0-5.34-4.5-5.63-5.35-.44-1.35-1.15-3.88-1.56-10Z"/><path d="M228.56,19.08c-.68,0-1.61-.09-1.85-1.16a9.49,9.49,0,0,1-3.54,1.33,2,2,0,0,1-1.95-2.11c0-1.11.78-1.4,1.4-1.63a22.25,22.25,0,0,0,7.56-4.31c1.43-1.21,1.9-1.61,3.51-1.61s2.14.42,3.52,1.61a22.34,22.34,0,0,0,7.55,4.33c.76.28,1.41.57,1.41,1.63a2.06,2.06,0,0,1-2,2.11,10.57,10.57,0,0,1-3.49-1.35c-.23,1-1,1.16-1.85,1.16Zm11.39,5a26.57,26.57,0,0,1,3.69,3.67c1.44,1.68,1.49,1.94,1.49,2.44,0,1.19-1.57,1.9-2.5,1.9a1.34,1.34,0,0,1-1.17-.57c-.11-.12-.58-.76-.68-.9-2.68.28-3.91.4-7.61.61-3.33.22-9,.5-9.11.5a1.66,1.66,0,0,1-1.93-1.85,1.53,1.53,0,0,1,1-1.58,11.71,11.71,0,0,1,2.69-.14,29.73,29.73,0,0,0,1.9-4.08h-4c-1.36,0-1.93-.52-1.93-1.82,0-1.61,1.46-1.61,1.93-1.61h19.82c1.25,0,1.9.45,1.9,1.8a1.61,1.61,0,0,1-1.9,1.63Zm-2.53-8.21a25.66,25.66,0,0,1-2.95-2.39c-.39-.38-.52-.5-.78-.5s-.34.09-.75.5A30.59,30.59,0,0,1,230,15.91Zm-5.37,8.21a41.88,41.88,0,0,1-2.06,4c3.1-.07,3.5-.1,8.44-.33-1.32-1.38-1.58-1.64-1.58-2.25,0-.41.31-1,1.25-1.38Z"/><path d="M254.72,13.09c1.61,0,2.45.76,2.45,2.18,0,1.16-.37,2.34-2.19,4.66a18.53,18.53,0,0,0,1.74,1.59c1,.83,1.33,1.14,1.33,1.68A1.92,1.92,0,0,1,256.23,25c-.89,0-1.46-.67-2.06-1.38v7c0,1.35-.65,1.73-2.16,1.73s-1.8-.9-1.8-1.73v-6a2.86,2.86,0,0,1-1.72.69,2.2,2.2,0,0,1-2.06-2.06c0-1,.58-1.35,2.29-2.47a10.43,10.43,0,0,0,3.94-4.07c0-.28-.31-.28-.44-.28h-3.57c-1.31,0-1.93-.47-1.93-1.75,0-1.59,1.48-1.59,1.93-1.59h1.56V11.48c0-1.28.57-1.75,2.11-1.75,1.75,0,1.85,1.11,1.85,1.73v1.63ZM269,15.72c.6,0,2,0,2,1.68,0,1.42-.57,1.94-2,1.94h-3.13v8.83h3.49c.55,0,2,0,2,1.66,0,1.35-.55,1.89-2,1.89H258c-.62,0-2.26,0-2.26-1.65,0-1.4.7-1.9,2.26-1.9h3.81V19.34h-3.08a1.63,1.63,0,0,1-1.92-1.7c0-1.42.6-1.92,1.92-1.92h3.08V11.53c0-.71.15-1.73,1.85-1.73s2.21.45,2.21,1.73v4.19Z"/><polygon points="7.92 28.42 5.31 28.42 5.31 29.43 6.03 29.43 6.03 35.7 7.2 35.7 7.2 29.43 7.92 29.43 7.92 28.42"/><polygon points="21.75 35.69 21.75 28.42 22.92 28.42 22.92 35.69 21.75 35.69 21.75 35.69"/><path d="M10.24,28.42h-1a1,1,0,0,0-1,1v1.48a1.36,1.36,0,0,0,.53,1l1,.62c.18.13.21.21.21.32v1.67a.21.21,0,0,1-.21.21.2.2,0,0,1-.2-.21V32.75H8.24v2a1,1,0,0,0,1,1h1a1,1,0,0,0,1-1v-2A.94.94,0,0,0,11,32a9.93,9.93,0,0,0-.92-.62c-.16-.09-.55-.39-.55-.63V29.64a.2.2,0,0,1,.2-.2.2.2,0,0,1,.21.2V30.9h1.29V29.41A1,1,0,0,0,10.24,28.42Z"/><path d="M18,30.93V29.41a1,1,0,0,0-1-1H15v7.27h2a1,1,0,0,0,1-1V32.64a1,1,0,0,0-.48-.87A1,1,0,0,0,18,30.93ZM16.7,34.47a.21.21,0,0,1-.21.21h-.2V32.37h.2a.22.22,0,0,1,.21.2Zm0-3.55a.22.22,0,0,1-.21.21h-.2V29.44h.2a.22.22,0,0,1,.21.2Z"/><path d="M13.32,28.42v6a.21.21,0,0,1-.21.21.2.2,0,0,1-.2-.21v-6H11.62V34.7a1,1,0,0,0,1,1h1a1,1,0,0,0,1-1V28.42Z"/><path d="M20.37,28.42h-1a1,1,0,0,0-1,1V34.7a1,1,0,0,0,1,1h1a1,1,0,0,0,1-1V29.41A1,1,0,0,0,20.37,28.42Zm-.29,6a.21.21,0,0,1-.21.21.2.2,0,0,1-.2-.21V29.64a.2.2,0,0,1,.2-.2.21.21,0,0,1,.21.2Z"/><polygon points="8.33 18.71 13.61 27.78 5.28 27.78 0 18.71 18.54 0 26.87 0 8.33 18.71" fill="#ef4123"/><polygon points="17.63 18.71 22.91 27.78 14.58 27.78 9.3 18.71 27.84 0 36.17 0 17.63 18.71" fill="#25408f"/><path d="M101,32.14c-1.06-.1-2.22-.72-2.25-1.49-.06-1.6.37-1.87,1.35-2.35a4.69,4.69,0,0,1,1.3-.23c1.5-.15,3.56-.35,4.29-2.35a5.55,5.55,0,0,0,.57-2.89V13.47a2.63,2.63,0,1,1,5.26,0v9.36a10.48,10.48,0,0,1-1.39,5.71A6,6,0,0,1,107.2,31l-.28.14A15.07,15.07,0,0,1,101,32.14Zm-6.73-.27a2.56,2.56,0,0,1-1.18-.28,8.32,8.32,0,0,1-3.51-3.05,10.48,10.48,0,0,1-1.39-5.71V13.47a2.63,2.63,0,1,1,5.26,0v9.36a5.52,5.52,0,0,0,.59,2.92,3.14,3.14,0,0,0,1.41,1.14,2.63,2.63,0,0,1-1.18,5Z"/><path d="M39.58,32.63a2.13,2.13,0,0,1-2.07-2.08,2.23,2.23,0,0,1,2.23-2.23h3.95c1.85,0,2.74-.11,3.45-.83a16.23,16.23,0,0,0,1.52-2.13c0-.05,2.78-5.49,3.7-7.43l.1-.21H36.29a2.63,2.63,0,0,1,0-5.26H54.53a4.35,4.35,0,0,1,3.95,2.69,6,6,0,0,1,.3,4.53A58.55,58.55,0,0,1,55,26.93a10.73,10.73,0,0,1-5.49,4.82c-2.08.81-7,.88-7.08.88Z"/><path d="M79.5,13.33a1.66,1.66,0,1,1,1.65-1.65A1.65,1.65,0,0,1,79.5,13.33Z"/><path d="M84.4,13.33a1.66,1.66,0,1,1,1.65-1.65A1.65,1.65,0,0,1,84.4,13.33Z"/><path d="M63.4,31.5a2.62,2.62,0,0,1-2.63-2.62V14.35a2.63,2.63,0,0,1,5.26,0V28.88A2.62,2.62,0,0,1,63.4,31.5Z"/><path d="M72.15,32.6A5.35,5.35,0,0,1,69,31.51a5,5,0,0,1-2-4,4.88,4.88,0,0,1,.79-2.72,4.62,4.62,0,0,1,1.69-1.53,5.64,5.64,0,0,1,2.2-.65h5.91V21.43H69.11a2,2,0,1,1,0-4.07h8.55V16.17H69.11a2,2,0,1,1,0-4.06H77.2a2.34,2.34,0,0,0,2.3,1.94,2.37,2.37,0,0,0,2.3-1.94h.3a2.37,2.37,0,0,0,2.3,1.94,2.3,2.3,0,0,0,1.54-.58,1.81,1.81,0,0,1,.13.67,2,2,0,0,1-2,2h-.72v1.19H84a2,2,0,1,1,0,4.07h-.72v1.19h1a2,2,0,0,1,0,4.07h-1V28a4.94,4.94,0,0,1-4.76,4.62Zm-.41-5.72c-.5,0-.79.29-.79.71a.78.78,0,0,0,.8.74h5.13a.74.74,0,0,0,.71-.75.7.7,0,0,0-.7-.71Z"/><path d="M153.4,32.29a2.23,2.23,0,0,1-2.23-2.23V27.23h-1.68l0,.09a3.36,3.36,0,0,1-.6.83l-.13.14c-.26.26-.56.55-.89.84a24.93,24.93,0,0,1-2.16,1.7,6.41,6.41,0,0,1-1.45.78,1.48,1.48,0,0,1-.51.09,1.63,1.63,0,0,1-.53-3.18l.1,0v0a1.49,1.49,0,0,0,.24-.14c.21-.13.49-.32.78-.54l.72-.55h-3.53a1.44,1.44,0,1,1,0-2.88h9.68V23.23h-7.3a1.44,1.44,0,0,1,0-2.87h7.3V19.23h-7.3a1.44,1.44,0,0,1,0-2.87h3.59l-.58-1.12h-5.39a1.44,1.44,0,1,1,0-2.88h2.59V10.68a1.44,1.44,0,1,1,2.87,0v1.68h1.13V10.68a2.46,2.46,0,0,1,4.76,0v1.68H154V10.68a2.46,2.46,0,0,1,4.76,0v1.68h1.13V10.68a1.44,1.44,0,1,1,2.87,0v1.68h2.59a1.44,1.44,0,0,1,0,2.88h-5.38l-.59,1.12h3.59a1.44,1.44,0,1,1,0,2.87h-7.3v1.13h7.3a1.44,1.44,0,1,1,0,2.87h-7.3v1.12h9.68a1.44,1.44,0,0,1,0,2.88h-3.53l.34.27a10.81,10.81,0,0,0,1.48,1,1.64,1.64,0,0,1-.51,3.2,1.58,1.58,0,0,1-.52-.09,5.32,5.32,0,0,1-1.25-.66c-.42-.28-.85-.59-1.28-.93a16.82,16.82,0,0,1-2.21-2,2.85,2.85,0,0,1-.47-.67l0-.09-.11,0h-1.58v2.83A2.23,2.23,0,0,1,153.4,32.29ZM152,16.36h2.82l.59-1.12h-4Z"/><path d="M116.13,31.93a2,2,0,0,1,0-4.06h7.06V15.34h-7.06a2,2,0,0,1,0-4.07h19.38a2,2,0,0,1,0,4.07h-7.06V27.87h7.06a2,2,0,1,1,0,4.06Z"/></g></g></svg>