<svg id="ae51d804-156c-4740-83ff-49959d01563d" data-name="Layer 1" xmlns="http://www.w3.org/2000/svg" width="397.32" height="74.16" viewBox="0 0 397.32 74.16"><path d="M54.8,16.56c2-2.48,2.64-3.28,4.8-5.68,3.2,2.72,4.16,3.6,7.12,6.48.24.24.4.4.4.56,0,.32-.24.48-.8.48H40.16V33.92h21c2.24-2.56,3-3.36,5.2-5.68,3.28,2.72,4.24,3.6,7.36,6.48.24.32.4.48.4.64s-.24.4-.8.4H41.2A50.09,50.09,0,0,0,51.52,49c7,6.56,14.32,10.4,24.4,12.8l-.16,1c-3.52.64-4.56,1.68-6,5.68a61.26,61.26,0,0,1-17.52-13.2A60.52,60.52,0,0,1,40.16,37.44V53.52c.16,14.8.16,14.8.24,19v.32c0,.88-1.36,1.28-4.64,1.28-.88,0-1.12-.16-1.2-1,.08-3.92.08-3.92.16-9.44,0-2.8,0-2.8.16-9.52V40.56A95,95,0,0,1,18.48,58,70,70,0,0,1,.72,69.2L0,68.08C8.64,62.72,13.36,58.64,21.2,50A71.25,71.25,0,0,0,31.6,35.76H8.8a36.87,36.87,0,0,0-6.16.48l-.72-3.12a36,36,0,0,0,8.24.8H34.88V18.4H15.44a42,42,0,0,0-6.56.48l-.64-3.12a34.22,34.22,0,0,0,8.56.8H34.88V11.2A49.51,49.51,0,0,0,34.24,1c1.76.24,3.28.48,4.08.56,4.08.56,5.12,1,5.12,1.76,0,.64-.4.88-3.28,1.76V16.56Z" fill="#001c3e"/><path d="M128.56,37.2c3.6-5,6.88-11.84,9.76-20.16,7.6,3,7.76,3.12,7.76,3.68,0,.72-.56.88-3.12,1A88.9,88.9,0,0,1,130.4,37.2h16.16c1.84-2.48,2.4-3.28,4.48-5.68,3.52,2.8,4.64,3.68,8,6.8a.73.73,0,0,1,.24.4c0,.32-.08.32-1,.32H125.6A41.82,41.82,0,0,0,138,53a70.35,70.35,0,0,0,15.12,8.48,39.16,39.16,0,0,0,7.44,2.32l-.16.8c-3.44.8-4.48,1.68-5.84,5.6a58.78,58.78,0,0,1-16-11.36A62.47,62.47,0,0,1,125.2,41V53.28c0,4.8,0,5.36.24,12.24.08,3.76.08,3.76.08,7.2-.24.8-.48,1-2.24,1.12-.4.08-2.56.24-2.72.24-.88,0-1.28-.24-1.36-1,.24-3.12.24-3.12.64-17.84V44.08c-4.32,6.08-8.8,10.64-16,16.32A78.65,78.65,0,0,1,86,71.28l-.8-1.12A89.91,89.91,0,0,0,106.08,53,64.2,64.2,0,0,0,116.56,39H94.08a45.74,45.74,0,0,0-6.8.4l-.8-3.2a32.2,32.2,0,0,0,7.76,1h25.6V14.88h-21a60,60,0,0,0-7.52.4l-.72-3a35.42,35.42,0,0,0,9,.72h20.24V10.4A73.47,73.47,0,0,0,119.2.56c7,.8,9.28,1.28,9.28,2.24,0,.72-.88,1.2-3.28,1.76V13H143c1.76-2.48,2.32-3.2,4.24-5.6,3.44,2.72,4.48,3.6,7.76,6.56a1.22,1.22,0,0,1,.32.48c0,.24-.32.4-.72.4H125.2V37.2ZM101.2,16.72c6.8,5.44,10.24,9.52,10.24,12.24,0,2.56-2,5.84-3.52,5.84-.72,0-.8-.24-1.36-2.32a45.8,45.8,0,0,0-6.08-15Z" fill="#001c3e"/><path d="M177.5,38.48c1.68,0,1.68,0,9.68-8.16,6.16-6.32,9.44-8.48,12.56-8.48,3.36,0,5.92,1.68,13.84,8.8,10.8,9.68,18,15,23.44,17.2a5,5,0,0,1,3.28,3,11.86,11.86,0,0,1,1.36,4.8,1.62,1.62,0,0,1-1.6,1.68c-1.12,0-4.08-1.52-7.2-3.6C227.5,50.08,220,43.2,211.58,34.24c-7.28-7.68-9.6-9.52-12.24-9.52-2.32,0-4.56,2-8.56,7.36a44.07,44.07,0,0,0-4.56,7A15.31,15.31,0,0,0,184.78,42c-.8,1.76-.8,1.84-1.36,2.32a3,3,0,0,1-1.76.64c-3.52,0-9.76-5.92-9.76-9.2a6,6,0,0,1,.32-1.12C173.74,36.88,176,38.48,177.5,38.48Z" fill="#001c3e"/><path d="M274.57,28.32v4.8h9.36l3.44-3.52a51.37,51.37,0,0,1,5.44,4.32c.24.24.4.4.4.56,0,.32-.4.48-.88.48H274.57V39.6a1,1,0,0,1-.48.8,12.53,12.53,0,0,1-3.36.32c-.56,0-.72-.24-.8-1l.16-4.8h-9.76a41.16,41.16,0,0,0-6.8.48L253,32.32a24.31,24.31,0,0,0,7.36.8h9.84v-4.8h-7.52v.56c-.16.48-.24.72-.64.8a28.15,28.15,0,0,1-3.36.24c-.56,0-.8-.24-.88-.88,0-1.68.08-3.12.08-3.92.16-3.44.24-5.76.24-6.88,0-2.08-.08-4-.32-8.24a30.52,30.52,0,0,1,5.6,2.8h7V8h-10a26.42,26.42,0,0,0-6.48.56l-.56-3.2a26.07,26.07,0,0,0,7,.8h9.92c0-2.48-.08-3.36-.24-6.16,6.4.72,7,.88,7,1.84,0,.56-.32.72-2.48,1.36v3h8.88c1.44-1.76,1.92-2.32,3.36-3.92,2.4,1.92,3.2,2.56,5.6,4.72a1.24,1.24,0,0,1,.24.48c0,.24-.4.56-.8.56H274.57v4.8h7.28c1.12-1.2,1.44-1.6,2.48-2.72,1.76,1.28,2.24,1.6,3.84,2.72.64.56.88.88.88,1.12,0,.48-.64.88-2.32,1.76,0,4.72,0,4.72.16,12.56-.16,1.12-.8,1.36-3.76,1.36-.64,0-.88-.16-.88-.56v-.72ZM254.89,72.4C263.61,68,268.33,64.56,272,60c1.6.48,2.8,1,3.6,1.2,2.88,1,3.92,1.52,3.92,2.08,0,.72-.64.88-4.08.88-7,4.88-10.24,6.4-20.08,9.36Zm28.72-18.64c7-5.68,11-9.76,14.08-13.84q2,1,3.12,1.44c3.28,1.36,3.68,1.6,3.68,2.08a.6.6,0,0,1-.4.56,13.2,13.2,0,0,1-3.36.48,134,134,0,0,1-15,9.28c13.76-.32,14.72-.32,25.2-1.28-2.08-1.76-2.32-1.92-6.72-5.28l.56-.88c8.72,3.2,11.84,4.64,13.76,6.4a6,6,0,0,1,1.84,4.4c0,1.84-.64,3.12-1.52,3.12-.56,0-.88-.24-1.6-1.2a36.21,36.21,0,0,0-4.4-5c-9.76,1.28-9.76,1.28-22.4,2.16V62.8c0,1.84.16,7.52.32,9.76-.16,1.2-.72,1.44-3,1.52-.72,0-1.12.08-1.28.08h-.24c-.64,0-1-.16-1.12-.72.16-5.52.32-9,.32-10.64V56.64c-16.48,1.28-19.12,1.44-25.2,1.6-.48,1.84-1,2.64-1.52,2.64-.72,0-1.12-1.28-2.48-7.44,4.48.4,10.08.56,15.76.56,1.76,0,2.48,0,8-.16a9,9,0,0,1-2.08-1.92,36.29,36.29,0,0,0-5.28-4.32c-.72-.48-2.32-1.52-4.8-3-.64-.4-1.6-1-2.88-1.84l.64-1a102.5,102.5,0,0,1,10.4,4,32.7,32.7,0,0,0,5.2-8.72c6.4,2.4,6.48,2.48,6.48,3.12s-.16.64-3.28,1c-.88.64-1.6,1.28-2,1.6a40.39,40.39,0,0,1-4.88,3.68c4.08,2,4.56,2.4,4.56,4.24a3.91,3.91,0,0,1-1.76,3.28ZM270.25,19.2c.08-2.48.08-2.48.08-4.56h-7.68V19.2Zm0,7.28V21h-7.6v5.52Zm12-11.84h-7.68V19.2h7.68Zm0,6.32h-7.68v5.52h7.68Zm44.56,17.12c-2.72.72-3.36,1.44-4.56,4.72-8.24-2.8-11.6-4.48-16.88-8.32a63.81,63.81,0,0,1-17,7.76l-.4-1a69.38,69.38,0,0,0,14.8-8.8,28.47,28.47,0,0,1-7.28-9.84,19.56,19.56,0,0,0-3.12.4l-.48-2.88a34.15,34.15,0,0,0,6,.56h14.4c1.44-1.28,1.84-1.6,3.2-2.8l4.24,3.6c.56.48.8.8.8,1,0,.8-1,1.28-3.68,1.68a43.73,43.73,0,0,1-8.32,8.08c5.28,2.48,9.68,3.6,18.24,4.72Zm-38.16-17.6c3.6-2.72,4.72-3.92,5.84-6.32a24.07,24.07,0,0,0,1.6-9.68c0-1.36-.08-2.08-.16-4.08a47.57,47.57,0,0,1,5.28,3h7.2c1.2-1.36,1.52-1.76,2.72-3,1.68,1.36,2.16,1.76,3.84,3,.48.48.72.72.72,1,0,.56-.64,1-2.4,1.76v5.84c0,.4.24.48,1.68.72a19.49,19.49,0,0,0,4.16-.24c.72-.4.72-.4,3-8.16l1,.08v6.24c0,1,.08,1.12.64,1.28,1.2.48,1.6.88,1.6,1.84a2.27,2.27,0,0,1-1.76,2.08c-1.2.32-3.92.48-9.44.48-4.4,0-5.36-.56-5.36-3v-8h-8c-.32,5.12-1.12,7.6-3.36,10.4-1.84,2.24-3.84,3.76-8.16,5.92ZM297,22.56a22.59,22.59,0,0,0,8.24,8,36.78,36.78,0,0,0,7.12-8H297Zm1,36.56c8.64,2,17.52,4.88,19.84,6.48a4.86,4.86,0,0,1,2,4.08c0,2.16-.64,3.68-1.52,3.68-.56,0-1.36-.56-2.32-1.52-3.36-3.6-11.92-8.88-18.64-11.6Z" fill="#001c3e"/><path d="M361.16,4.32c2.24,0,6.64,2.08,8.88,4.24,1.28,1.2,1.76,2,1.76,3.12s-.4,1.6-4.64,5a199.07,199.07,0,0,0-14.72,13.84c-2.8,3.12-3.84,4.88-3.84,6.48q0,1.68,2.4,4.08c1.12,1.2,1.12,1.2,5.6,5.36,8.72,8,12.8,12.48,14.72,16.32a9.82,9.82,0,0,1,1.2,5.2c0,3-1,4.8-2.72,4.8-1,0-1.36-.4-2.72-3.28a75.39,75.39,0,0,0-6.72-11.28c-3-4.24-3.36-4.72-11.68-14.48-2.16-2.64-3-4.56-3-6.72,0-2.56,1.28-4.72,6.16-10.72,9.68-11.68,12.08-15.12,12.08-17,0-1.36-1-2.48-4.4-4.72A5.32,5.32,0,0,1,361.16,4.32ZM378,8.4a33.9,33.9,0,0,1,8.56,5c2.32,1.84,3.28,3.36,3.28,5.28,0,2.24-.8,3.92-1.92,3.92-.64,0-1.12-.48-1.84-1.84a46.81,46.81,0,0,0-8.64-11.44Zm7.12-5.12c5,1.84,8.08,3.36,10,5,1.68,1.36,2.16,2.24,2.16,4.08,0,2.16-.72,3.6-1.76,3.6-.56,0-1.12-.48-1.76-1.44a38.76,38.76,0,0,0-5.12-6.4,53.24,53.24,0,0,0-4.16-3.84Z" fill="#001c3e"/></svg>