<?xml version="1.0" encoding="utf-8"?>
<!-- Generator: Adobe Illustrator 26.0.1, SVG Export Plug-In . SVG Version: 6.00 Build 0)  -->
<svg version="1.1" id="ae51d804-156c-4740-83ff-49959d01563d"
	 xmlns="http://www.w3.org/2000/svg" xmlns:xlink="http://www.w3.org/1999/xlink" x="0px" y="0px" width="397.3px" height="74.2px"
	 viewBox="0 0 397.3 74.2" style="enable-background:new 0 0 397.3 74.2;" xml:space="preserve">
<style type="text/css">
	.st0{fill:#FFFFFF;}
</style>
<path class="st0" d="M54.8,16.6c2-2.5,2.6-3.3,4.8-5.7c3.2,2.7,4.2,3.6,7.1,6.5c0.2,0.2,0.4,0.4,0.4,0.6c0,0.3-0.2,0.5-0.8,0.5H40.2
	v15.5h21c2.2-2.6,3-3.4,5.2-5.7c3.3,2.7,4.2,3.6,7.4,6.5c0.2,0.3,0.4,0.5,0.4,0.6s-0.2,0.4-0.8,0.4H41.2c2.7,5,6.2,9.4,10.3,13.2
	c7,6.6,14.3,10.4,24.4,12.8l-0.2,1c-3.5,0.6-4.6,1.7-6,5.7c-6.6-3.3-12.5-7.8-17.5-13.2c-5.1-5.2-9.2-11.2-12.1-17.8v16.1
	c0.2,14.8,0.2,14.8,0.2,19v0.3c0,0.9-1.4,1.3-4.6,1.3c-0.9,0-1.1-0.2-1.2-1c0.1-3.9,0.1-3.9,0.2-9.4c0-2.8,0-2.8,0.2-9.5V40.6
	C30.2,47,24.7,52.9,18.5,58c-5.3,4.6-11.3,8.4-17.8,11.2L0,68.1c8.6-5.4,13.4-9.4,21.2-18.1c4-4.3,7.5-9.1,10.4-14.2H8.8
	c-2.1,0-4.1,0.1-6.2,0.5l-0.7-3.1c2.7,0.6,5.5,0.9,8.2,0.8h24.7V18.4H15.4c-2.2,0-4.4,0.1-6.6,0.5l-0.6-3.1c2.8,0.6,5.7,0.9,8.6,0.8
	h18.1v-5.4C35,7.8,34.8,4.4,34.2,1c1.8,0.2,3.3,0.5,4.1,0.6c4.1,0.6,5.1,1,5.1,1.8c0,0.6-0.4,0.9-3.3,1.8v11.5H54.8z"/>
<path class="st0" d="M128.6,37.2c3.6-5,6.9-11.8,9.8-20.2c7.6,3,7.8,3.1,7.8,3.7c0,0.7-0.6,0.9-3.1,1c-3.6,5.6-7.8,10.8-12.6,15.5
	h16.2c1.8-2.5,2.4-3.3,4.5-5.7c3.5,2.8,4.6,3.7,8,6.8c0.1,0.1,0.2,0.2,0.2,0.4c0,0.3-0.1,0.3-1,0.3h-32.7c3,5.5,7.3,10.3,12.4,14
	c4.7,3.4,9.7,6.3,15.1,8.5c2.4,1,4.9,1.8,7.4,2.3l-0.2,0.8c-3.4,0.8-4.5,1.7-5.8,5.6c-5.9-2.9-11.3-6.7-16-11.4
	c-5.5-5.1-10-11.1-13.4-17.8v12.3c0,4.8,0,5.4,0.2,12.2c0.1,3.8,0.1,3.8,0.1,7.2c-0.2,0.8-0.5,1-2.2,1.1c-0.4,0.1-2.6,0.2-2.7,0.2
	c-0.9,0-1.3-0.2-1.4-1c0.2-3.1,0.2-3.1,0.6-17.8V44.1c-4.3,6.1-8.8,10.6-16,16.3c-5.4,4.4-11.4,8.1-17.8,10.9l-0.8-1.1
	C93,65.5,100,59.7,106.1,53c4.1-4.2,7.6-8.9,10.5-14H94.1c-2.3,0-4.5,0.1-6.8,0.4l-0.8-3.2c2.5,0.6,5.1,1,7.8,1h25.6V14.9h-21
	c-2.5,0-5,0.1-7.5,0.4l-0.7-3c3,0.6,6,0.9,9,0.7h20.2v-2.6c0-3.3-0.2-6.6-0.6-9.8c7,0.8,9.3,1.3,9.3,2.2c0,0.7-0.9,1.2-3.3,1.8V13
	H143c1.8-2.5,2.3-3.2,4.2-5.6c3.4,2.7,4.5,3.6,7.8,6.6c0.1,0.1,0.3,0.3,0.3,0.5c0,0.2-0.3,0.4-0.7,0.4h-29.4v22.4H128.6z
	 M101.2,16.7c6.8,5.4,10.2,9.5,10.2,12.2c0,2.6-2,5.8-3.5,5.8c-0.7,0-0.8-0.2-1.4-2.3c-1.1-5.3-3.2-10.4-6.1-15L101.2,16.7z"/>
<path class="st0" d="M177.5,38.5c1.7,0,1.7,0,9.7-8.2c6.2-6.3,9.4-8.5,12.6-8.5c3.4,0,5.9,1.7,13.8,8.8c10.8,9.7,18,15,23.4,17.2
	c1.5,0.4,2.7,1.5,3.3,3c0.8,1.5,1.3,3.1,1.4,4.8c0,0.9-0.7,1.6-1.6,1.7c0,0,0,0,0,0c-1.1,0-4.1-1.5-7.2-3.6
	c-5.4-3.6-12.9-10.5-21.3-19.5c-7.3-7.7-9.6-9.5-12.2-9.5c-2.3,0-4.6,2-8.6,7.4c-1.7,2.2-3.3,4.5-4.6,7c-0.6,0.9-1.1,1.9-1.4,2.9
	c-0.8,1.8-0.8,1.8-1.4,2.3c-0.5,0.4-1.1,0.6-1.8,0.6c-3.5,0-9.8-5.9-9.8-9.2c0.1-0.4,0.2-0.8,0.3-1.1
	C173.7,36.9,176,38.5,177.5,38.5z"/>
<path class="st0" d="M274.6,28.3v4.8h9.4l3.4-3.5c1.9,1.3,3.7,2.8,5.4,4.3c0.2,0.2,0.4,0.4,0.4,0.6c0,0.3-0.4,0.5-0.9,0.5h-17.8v4.6
	c0,0.3-0.2,0.6-0.5,0.8c-1.1,0.3-2.2,0.4-3.4,0.3c-0.6,0-0.7-0.2-0.8-1l0.2-4.8h-9.8c-2.3,0-4.6,0.1-6.8,0.5l-0.5-3.1
	c2.4,0.6,4.9,0.9,7.4,0.8h9.8v-4.8h-7.5v0.6c-0.2,0.5-0.2,0.7-0.6,0.8c-1.1,0.1-2.2,0.2-3.4,0.2c-0.6,0-0.8-0.2-0.9-0.9
	c0-1.7,0.1-3.1,0.1-3.9c0.2-3.4,0.2-5.8,0.2-6.9c0-2.1-0.1-4-0.3-8.2c2,0.7,3.8,1.7,5.6,2.8h7V8h-10c-2.2-0.1-4.4,0.1-6.5,0.6
	l-0.6-3.2c2.3,0.6,4.6,0.9,7,0.8h9.9c0-2.5-0.1-3.4-0.2-6.2c6.4,0.7,7,0.9,7,1.8c0,0.6-0.3,0.7-2.5,1.4v3h8.9
	c1.4-1.8,1.9-2.3,3.4-3.9c2.4,1.9,3.2,2.6,5.6,4.7c0.1,0.1,0.2,0.3,0.2,0.5c0,0.2-0.4,0.6-0.8,0.6h-17.3v4.8h7.3
	c1.1-1.2,1.4-1.6,2.5-2.7c1.8,1.3,2.2,1.6,3.8,2.7c0.6,0.6,0.9,0.9,0.9,1.1c0,0.5-0.6,0.9-2.3,1.8c0,4.7,0,4.7,0.2,12.6
	c-0.2,1.1-0.8,1.4-3.8,1.4c-0.6,0-0.9-0.2-0.9-0.6v-0.7L274.6,28.3z M254.9,72.4c8.7-4.4,13.4-7.8,17.1-12.4c1.6,0.5,2.8,1,3.6,1.2
	c2.9,1,3.9,1.5,3.9,2.1c0,0.7-0.6,0.9-4.1,0.9c-7,4.9-10.2,6.4-20.1,9.4L254.9,72.4z M283.6,53.8c7-5.7,11-9.8,14.1-13.8
	c1.3,0.7,2.4,1.1,3.1,1.4c3.3,1.4,3.7,1.6,3.7,2.1c0,0.3-0.2,0.5-0.4,0.6c-1.1,0.3-2.2,0.5-3.4,0.5c-4.8,3.4-9.8,6.5-15,9.3
	c13.8-0.3,14.7-0.3,25.2-1.3c-2.1-1.8-2.3-1.9-6.7-5.3l0.6-0.9c8.7,3.2,11.8,4.6,13.8,6.4c1.2,1.1,1.9,2.7,1.8,4.4
	c0,1.8-0.6,3.1-1.5,3.1c-0.6,0-0.9-0.2-1.6-1.2c-1.3-1.8-2.8-3.5-4.4-5c-9.8,1.3-9.8,1.3-22.4,2.2v6.6c0,1.8,0.2,7.5,0.3,9.8
	c-0.2,1.2-0.7,1.4-3,1.5c-0.7,0-1.1,0.1-1.3,0.1h-0.2c-0.6,0-1-0.2-1.1-0.7c0.2-5.5,0.3-9,0.3-10.6v-6.2
	c-16.5,1.3-19.1,1.4-25.2,1.6c-0.5,1.8-1,2.6-1.5,2.6c-0.7,0-1.1-1.3-2.5-7.4c4.5,0.4,10.1,0.6,15.8,0.6c1.8,0,2.5,0,8-0.2
	c-0.8-0.5-1.5-1.2-2.1-1.9c-1.6-1.6-3.4-3-5.3-4.3c-0.7-0.5-2.3-1.5-4.8-3c-0.6-0.4-1.6-1-2.9-1.8l0.6-1c3.5,1.1,7,2.5,10.4,4
	c2.2-2.6,3.9-5.6,5.2-8.7c6.4,2.4,6.5,2.5,6.5,3.1s-0.2,0.6-3.3,1c-0.9,0.6-1.6,1.3-2,1.6c-1.5,1.3-3.2,2.6-4.9,3.7
	c4.1,2,4.6,2.4,4.6,4.2c0,1.3-0.7,2.6-1.8,3.3L283.6,53.8z M270.2,19.2c0.1-2.5,0.1-2.5,0.1-4.6h-7.7v4.6H270.2z M270.2,26.5V21
	h-7.6v5.5L270.2,26.5z M282.2,14.6h-7.7v4.6h7.7V14.6z M282.2,21h-7.7v5.5h7.7V21z M326.8,38.1c-2.7,0.7-3.4,1.4-4.6,4.7
	c-8.2-2.8-11.6-4.5-16.9-8.3c-5.3,3.4-11,6-17,7.8l-0.4-1c5.3-2.3,10.3-5.3,14.8-8.8c-3.1-2.7-5.6-6.1-7.3-9.8c-1,0-2.1,0.2-3.1,0.4
	l-0.5-2.9c2,0.4,4,0.6,6,0.6h14.4c1.4-1.3,1.8-1.6,3.2-2.8l4.2,3.6c0.6,0.5,0.8,0.8,0.8,1c0,0.8-1,1.3-3.7,1.7
	c-2.4,3.1-5.2,5.8-8.3,8.1c5.3,2.5,9.7,3.6,18.2,4.7L326.8,38.1z M288.6,20.5c3.6-2.7,4.7-3.9,5.8-6.3c1.2-3.1,1.7-6.4,1.6-9.7
	c0-1.4-0.1-2.1-0.2-4.1c1.8,0.9,3.6,1.9,5.3,3h7.2c1.2-1.4,1.5-1.8,2.7-3c1.7,1.4,2.2,1.8,3.8,3c0.5,0.5,0.7,0.7,0.7,1
	c0,0.6-0.6,1-2.4,1.8V12c0,0.4,0.2,0.5,1.7,0.7c1.4,0.1,2.8,0,4.2-0.2c0.7-0.4,0.7-0.4,3-8.2l1,0.1v6.2c0,1,0.1,1.1,0.6,1.3
	c1.2,0.5,1.6,0.9,1.6,1.8c-0.1,1-0.8,1.9-1.8,2.1c-1.2,0.3-3.9,0.5-9.4,0.5c-4.4,0-5.4-0.6-5.4-3v-8h-8c-0.3,5.1-1.1,7.6-3.4,10.4
	c-1.8,2.2-3.8,3.8-8.2,5.9L288.6,20.5z M297,22.6c2,3.3,4.9,6.1,8.2,8c2.8-2.3,5.1-5,7.1-8H297z M298,59.1c8.6,2,17.5,4.9,19.8,6.5
	c1.3,0.9,2,2.5,2,4.1c0,2.2-0.6,3.7-1.5,3.7c-0.6,0-1.4-0.6-2.3-1.5c-3.4-3.6-11.9-8.9-18.6-11.6L298,59.1z"/>
<path class="st0" d="M361.2,4.3c2.2,0,6.6,2.1,8.9,4.2c1.3,1.2,1.8,2,1.8,3.1s-0.4,1.6-4.6,5c-5.1,4.4-10.1,9-14.7,13.8
	c-2.8,3.1-3.8,4.9-3.8,6.5c0,1.1,0.8,2.5,2.4,4.1c1.1,1.2,1.1,1.2,5.6,5.4c8.7,8,12.8,12.5,14.7,16.3c0.9,1.6,1.3,3.4,1.2,5.2
	c0,3-1,4.8-2.7,4.8c-1,0-1.4-0.4-2.7-3.3c-1.9-3.9-4.2-7.7-6.7-11.3c-3-4.2-3.4-4.7-11.7-14.5c-2.2-2.6-3-4.6-3-6.7
	c0-2.6,1.3-4.7,6.2-10.7c9.7-11.7,12.1-15.1,12.1-17c0-1.4-1-2.5-4.4-4.7C360.1,4.4,360.6,4.3,361.2,4.3z M378,8.4
	c3.1,1.2,6,2.9,8.6,5c2.3,1.8,3.3,3.4,3.3,5.3c0,2.2-0.8,3.9-1.9,3.9c-0.6,0-1.1-0.5-1.8-1.8c-2.3-4.2-5.2-8.1-8.6-11.4L378,8.4z
	 M385.1,3.3c5,1.8,8.1,3.4,10,5c1.7,1.4,2.2,2.2,2.2,4.1c0,2.2-0.7,3.6-1.8,3.6c-0.6,0-1.1-0.5-1.8-1.4c-1.5-2.3-3.2-4.5-5.1-6.4
	c-1.3-1.4-2.7-2.6-4.2-3.8L385.1,3.3z"/>
</svg>
