<svg id="b8cdebd5-bee9-4661-81a4-e4b12a2ebd5e" data-name="Layer 1" xmlns="http://www.w3.org/2000/svg" width="319.04" height="19.71" viewBox="0 0 319.04 19.71"><path d="M7.16,1.66c3.63.86,4.47,1.3,4.47,2.39,0,.8-.42,1.47-.9,1.47-.23,0-.32-.08-1.24-1.38A11,11,0,0,0,7,1.89,12.73,12.73,0,0,1,4.2,4.79a8.27,8.27,0,0,0,1.18.08H7c.46-.54.61-.73,1.05-1.26C8.78,4.2,9,4.39,9.62,5a.56.56,0,0,1,.1.16.2.2,0,0,1-.21.17H5.42a3.77,3.77,0,0,0-1.09.11L4.2,4.79a9.74,9.74,0,0,1-1.37,1,19,19,0,0,1,1.71,1h4c.42-.48.55-.63,1-1.09.76.46,1,.61,1.68,1.09.19.15.25.25.25.38s-.14.29-.67.57V9.24c0,1.13,0,1.68.06,2.92,0,.44-.29.52-1.65.52-.42,0-.51-.06-.53-.33V12H4.09a6.7,6.7,0,0,1-.37,1.15c.44.24.73.42,1.51.89H8.69c.44-.51.57-.65,1-1.14.72.49.95.63,1.62,1.14.21.14.29.23.29.33s-.08.21-.65.55c0,1.61,0,2.14.06,3.86,0,.52-.25.61-1.68.61-.42,0-.52-.06-.52-.38v-.59H5.08V19c0,.47-.25.53-1.51.53-.53,0-.65-.11-.65-.53,0-1.49,0-2,0-3.12V14.74A10.15,10.15,0,0,1,.17,18L0,17.76c1.76-2.62,2.29-4.87,2.29-10,0-.65,0-1,0-1.6A16.7,16.7,0,0,1,.19,7.26L0,7.05A16,16,0,0,0,3.4,3.34,11.26,11.26,0,0,0,5,.21c3.19.78,3.19.78,3.19,1s-.3.31-.91.33ZM4.41,9.49a10.61,10.61,0,0,1-.21,2.06H8.65V9.49Zm4.24-.44V7.22H4.47c0,1,0,1.6,0,1.83ZM5.08,18H8.84v-3.5H5.08ZM15.47,2.69c0,.19-.12.27-.75.48V5.86c0,2.33,0,3.55.08,8.23v.08a.52.52,0,0,1-.25.53,4.4,4.4,0,0,1-1.34.19c-.61,0-.74-.11-.74-.55.06-1.91.09-3.74.09-10.14,0-.61-.05-1.39-.09-2.21C15.18,2.33,15.47,2.39,15.47,2.69Zm1-.07a18.24,18.24,0,0,0-.1-2c.75.06,1.3.13,1.68.17,1.26.1,1.55.21,1.55.48s-.21.34-.84.51V12l.09,5.35c0,1-.24,1.39-.95,1.7a7.87,7.87,0,0,1-2.12.47c-.17,0-.19,0-.19-.36,0-1.11-.63-1.53-2.94-2.08V16.8c1.64.1,2.16.12,3.49.16.29,0,.35-.08.35-.29Z" fill="#001c3e"/><path d="M44.81,4.68c2.7,1,2.7,1,2.7,1.24s-.25.29-.82.29a.45.45,0,0,1-.14,0c-1.77,1.24-1.77,1.24-2.35,1.6h3.27l1.45-1.45A25.18,25.18,0,0,1,51,8c.06.06.1.1.1.16s-.1.11-.23.11H43.08v1.89H46.3c.6-.63.79-.82,1.38-1.41.88.65,1.14.84,2,1.54a.26.26,0,0,1,.13.19c0,.08-.1.12-.25.12H43.08v2h4.83c.67-.7.88-.88,1.54-1.54.94.7,1.21.93,2.09,1.66.09.07.13.13.13.19s-.1.13-.27.13h-8a7.85,7.85,0,0,0,2.43,1.76A16.88,16.88,0,0,0,52,16.17v.29c-.74.32-1.07.71-1.47,1.81-.13.35-.15.37-.32.37a11.13,11.13,0,0,1-2.33-.84,11.34,11.34,0,0,1-4.83-4.47v2.1c0,1,0,1.77.07,3.66,0,.44-.28.52-1.56.52-.69,0-.8-.06-.8-.42.05-1.13.11-3.17.11-3.65V14.26a15.77,15.77,0,0,1-4.09,3,20.74,20.74,0,0,1-4.35,1.55l-.13-.25A20.39,20.39,0,0,0,37,15.39,17.69,17.69,0,0,0,39.18,13H34.6a8.16,8.16,0,0,0-1.51.14L33,12.39a6.67,6.67,0,0,0,1.62.19h6.3v-2H36.53a10.13,10.13,0,0,0-1.63.13l-.13-.76a8,8,0,0,0,1.76.19H40.9V8.23H35.29a6.24,6.24,0,0,0-1.4.13l-.13-.76a5.67,5.67,0,0,0,1.53.19h3.57a1.06,1.06,0,0,1-.29-.63,5.11,5.11,0,0,0-1-2.31l.17-.17H34.22a8.65,8.65,0,0,0-1.49.11L32.61,4a6.14,6.14,0,0,0,1.61.21h5v-2A14.47,14.47,0,0,0,39.09.19a14.41,14.41,0,0,1,2.73.27c.15,0,.23.13.23.23s-.16.3-.79.46V4.24h1.55v-2c0-.8,0-1.18-.06-2,2.64.17,2.94.21,2.94.5s-.17.28-.8.47v3h.82A20.3,20.3,0,0,0,47.39.42c2.22.82,2.87,1.11,2.87,1.34S50,2,49.42,2h-.16a20.07,20.07,0,0,1-2.75,2.2h2.07c.63-.65.63-.65,1.43-1.51.93.69,1.2.9,2.1,1.68a.34.34,0,0,1,.11.17c0,.06-.11.1-.26.1ZM34.77.5C37.18,1.3,38,1.85,38,2.69a1.6,1.6,0,0,1-1.3,1.49c-.36,0-.57-.25-.69-.84A6.5,6.5,0,0,0,34.6.67Zm2.94,4.18c2.12.74,2.9,1.26,2.9,2a1.38,1.38,0,0,1-.72,1.16h3.32a10.49,10.49,0,0,0,1.36-3.11Z" fill="#001c3e"/><path d="M71.08,7.64a4.53,4.53,0,0,1,4.71,4.85,5.09,5.09,0,0,1-5.4,5.36c-3.57,0-5.5-2.63-5.5-7.5a11.19,11.19,0,0,1,1.66-6.57,5,5,0,0,1,4.26-2c2.54,0,4.45,1.13,4.45,2.64,0,.76-.57,1.22-1.51,1.22a1.46,1.46,0,0,1-1.15-.4c-.13-.17-.13-.23-.19-1.09-.07-1.2-.68-1.85-1.66-1.85-1.28,0-2.19,1-2.63,2.77a18.47,18.47,0,0,0-.44,4A4.43,4.43,0,0,1,71.08,7.64Zm-3,2.16a4.1,4.1,0,0,0-.42,2.1,10.09,10.09,0,0,0,.67,3.83,2.38,2.38,0,0,0,2.12,1.59c1.6,0,2.56-1.78,2.56-4.76,0-2.61-1-4.22-2.6-4.22A2.72,2.72,0,0,0,68.06,9.8Z" fill="#001c3e"/><path d="M90.41,3.86a5.06,5.06,0,0,1,8.13,0,10.72,10.72,0,0,1,1.53,6,10.59,10.59,0,0,1-1.53,5.94,5,5,0,0,1-8.13,0,10.81,10.81,0,0,1-1.53-5.94A10.7,10.7,0,0,1,90.41,3.86ZM92.34,15.5c.46,1.21,1.18,1.82,2.14,1.82s1.81-.71,2.27-2.18a18,18,0,0,0,.55-5.31,16.53,16.53,0,0,0-.67-5.67c-.47-1.24-1.16-1.83-2.15-1.83-2,0-2.81,2.29-2.81,7.5A16.84,16.84,0,0,0,92.34,15.5Z" fill="#001c3e"/><path d="M124.93,8h2.25l1.51-1.68c1,.75,1.3,1,2.27,1.76a.43.43,0,0,1,.1.19.21.21,0,0,1-.21.17h-5.92v5.12h3.19c.74-.8,1-1,1.72-1.82,1,.81,1.35,1.07,2.33,1.93a.35.35,0,0,1,.11.19c0,.08-.08.14-.23.14h-7.12v1.85c0,.31,0,1.91.06,3.19,0,.36-.06.48-.27.57a5.18,5.18,0,0,1-1.41.14c-.73,0-.86-.06-.86-.39v-.11c.07-2.39.09-2.79.09-3.27V14H115c-.3,0-1.37.09-1.79.13l-.12-.74a11.67,11.67,0,0,0,1.91.17h1.36V9.07c0-1.15,0-1.6-.08-2.65,1.22.66,1.57.87,2.73,1.54h3.55v-4h-4.08a20.42,20.42,0,0,1-5,4.8l-.17-.21a21.35,21.35,0,0,0,2.9-4.66A18.3,18.3,0,0,0,117.5.23a19.19,19.19,0,0,1,3.36,1.07.27.27,0,0,1,.1.21c0,.23-.14.3-1.09.42a13,13,0,0,1-1.09,1.53h8.84c.52-.58,1.07-1.17,1.59-1.76,1.1.8,1.41,1.05,2.46,1.89a.34.34,0,0,1,.11.17c0,.08-.09.15-.21.15h-6.64Zm-6.21.44v5.12h3.82V8.4Z" fill="#001c3e"/><path d="M153.25,17.85a11,11,0,0,0,5.08-3,7.86,7.86,0,0,0,2.1-5.53c0-3.59-2.19-5.73-5.8-5.73a6.89,6.89,0,0,0-.84,0,3.11,3.11,0,0,1,1,2.25c0,1.68-1.07,4.62-2.59,7.16-1.36,2.27-2.58,3.42-3.63,3.42a1.37,1.37,0,0,1-1.13-.61,4.8,4.8,0,0,1-.48-1.38,3.69,3.69,0,0,0-.91-1.56,4,4,0,0,1-.82-2.41A7,7,0,0,1,147,6.32a10.41,10.41,0,0,1,7.91-3.44c4.69,0,8,3,8,7.11a7.41,7.41,0,0,1-4.72,6.89,15.5,15.5,0,0,1-4.85,1.26Zm-3.93-12a7.16,7.16,0,0,0-2.25,5c0,1.45.72,2.94,1.43,2.94s2.08-1.75,3.44-4.33a12.48,12.48,0,0,0,1.68-4.64,2.51,2.51,0,0,0-.08-.69,1.87,1.87,0,0,0-.17-.46A7.54,7.54,0,0,0,149.32,5.9Z" fill="#001c3e"/><path d="M184.65,3.49V2.21a17.08,17.08,0,0,0-.06-1.83C187.17.59,188,.76,188,1s-.27.36-.88.54V3.49H192c.53-.59.69-.78,1.26-1.39,1.11.84,1.43,1.11,2.42,2,.14.17.21.28.21.38a.31.31,0,0,1-.17.25,1.9,1.9,0,0,1-.8.15c-.13,0-.34,0-.61,0-2.37,1.49-2.37,1.49-3.27,2l-.17-.13a20.88,20.88,0,0,0,1.28-2.83H179.55V4.2c0,2-.84,3.46-2,3.46-.71,0-1.23-.67-1.23-1.61a.9.9,0,0,1,.58-1,2.78,2.78,0,0,0,1.56-1.41,6.45,6.45,0,0,0,.5-1.82l.19,0a5.35,5.35,0,0,1,.36,1.66Zm6.43,5.87a12.61,12.61,0,0,1-2.46,5.19c.61.17,2,.63,2.83.92a4.88,4.88,0,0,1,1.85,1.22,2.23,2.23,0,0,1,.42,1.32c0,.78-.36,1.47-.78,1.47a1.84,1.84,0,0,1-.88-.54,16.41,16.41,0,0,0-3.17-2.35c-.94-.57-1.07-.65-1.4-.82a12.6,12.6,0,0,1-4.6,2.64,24.9,24.9,0,0,1-6.24,1.16l0-.25a24.37,24.37,0,0,0,5.75-2.08,13.55,13.55,0,0,0,3.26-2.4,26.38,26.38,0,0,0-3.51-1.34c-.1.15-.1.15-.29.48s-.28.44-.59.89a.5.5,0,0,1-.4.18,6.58,6.58,0,0,1-1.89-.29.15.15,0,0,1-.1-.15.62.62,0,0,1,0-.16,37.61,37.61,0,0,0,2.87-5.09h-3.54a7.44,7.44,0,0,0-1.47.13l-.15-.71a8.11,8.11,0,0,0,1.59.14H182a18.74,18.74,0,0,0,1.62-4.28c3.15.63,3.15.63,3.15.9s-.23.32-1,.49c-.52,1.3-.75,1.84-1.24,2.89h7l1.66-1.76c1.07.8,1.39,1.05,2.46,2,.06,0,.08.09.08.11a.13.13,0,0,1-.14.12Zm-6.81,0c-.88,1.85-.88,1.85-2,3.8.57.11.57.11,1.6.28.56.08,1,.19,1.4.27.8.17.82.17,1.09.21a13.5,13.5,0,0,0,2.15-4.56Z" fill="#001c3e"/><path d="M210.52,7.6a16.54,16.54,0,0,1,.33,3.26,7.17,7.17,0,0,1-1,4.09,1.67,1.67,0,0,1-1.29.86c-.67,0-1.23-.84-1.23-1.85a1.34,1.34,0,0,1,.27-.9,5,5,0,0,1,.73-.65A5.29,5.29,0,0,0,209.84,10a9.8,9.8,0,0,0,.4-2.39Zm2.24.32c0-1.41,0-2.4-.1-3.22,3.23.4,3.44.47,3.44.78s-.17.29-.9.57V16.36c0,.48,0,.48,2.69.48,1.8,0,2.14-.06,2.37-.46a32.77,32.77,0,0,0,1.51-5l.31,0-.16,4.47V16c0,.29.08.35.54.5a1,1,0,0,1,.78,1c0,.71-.53,1.18-1.49,1.32a40.81,40.81,0,0,1-4.47.17c-2.73,0-3.47-.06-4-.36s-.53-.56-.57-1.34l0-3.23Zm.51-7.19c5.18.84,6.63,1.54,6.63,3.18,0,1-.38,1.76-.94,1.76-.26,0-.47-.13-.76-.48a15.54,15.54,0,0,0-5-4.2Zm8.86,6.58c3,2.2,4.55,4.05,4.55,5.35s-.9,2.52-1.76,2.52c-.42,0-.59-.23-.69-1a16.36,16.36,0,0,0-2.33-6.76Z" fill="#001c3e"/><path d="M244,.76a6,6,0,0,1,2.14.42c.82.29,1.2.67,1.2,1.15,0,.23,0,.23-.23.71a12.2,12.2,0,0,0-.63,4.39c0,.67.23,1,.69,1a5.64,5.64,0,0,0,1.91-.69A4.35,4.35,0,0,1,251,7.14a1.37,1.37,0,0,1,1.38,1.32.87.87,0,0,1-.56.88,8.17,8.17,0,0,1-2.1.57,14.58,14.58,0,0,0-5.29,2.23,3,3,0,0,0-1.5,2.39c0,1.3,1.1,2,3.09,2a19.09,19.09,0,0,0,5-.73,2.15,2.15,0,0,1,.71-.13,2,2,0,0,1,1.47.7,1.24,1.24,0,0,1,.4.94c0,.48-.36.78-1.11,1a24.87,24.87,0,0,1-4.18.31A11.07,11.07,0,0,1,244,18a3.58,3.58,0,0,1-2.33-3.36c0-2,1.68-3.9,4.93-5.6a.39.39,0,0,1-.14,0,1.79,1.79,0,0,1-1.14-.44c-.5-.49-.61-1.09-.69-3.76a10,10,0,0,0-.27-2.79c-.19-.49-.66-.74-1.62-.91A1.55,1.55,0,0,1,244,.76Z" fill="#001c3e"/><path d="M267,11a31.4,31.4,0,0,0,2.73-5.77A20.25,20.25,0,0,0,271,.19c3.13.73,3.36.8,3.36,1.07s-.25.31-.84.42a34.17,34.17,0,0,1-2.63,5l1.14.18c.29,0,.5.17.5.3s-.1.21-.69.46V19a.41.41,0,0,1-.3.46,4.94,4.94,0,0,1-1.49.19c-.35,0-.56-.08-.63-.25a.7.7,0,0,1,0-.27c.06-1.85.15-5.53.15-6.68V8.54a20.1,20.1,0,0,1-2.44,2.65Zm6-6.59a9.85,9.85,0,0,0,1.82.17h8c.7-.76.91-1,1.58-1.74,1.11.77,1.45,1,2.48,1.8.08.11.14.17.14.21s-.12.17-.27.17H274.8a9,9,0,0,0-1.7.13Zm1,2.79a9.12,9.12,0,0,0,1.68.17h6.24l1.47-1.62c1.09.74,1.41,1,2.39,1.68.11.11.15.17.15.23s-.11.15-.25.15h-10a8.22,8.22,0,0,0-1.53.11Zm0,2.82a8.26,8.26,0,0,0,1.67.16h6.3c.63-.71.82-.94,1.45-1.66,1.05.76,1.37,1,2.35,1.73a.39.39,0,0,1,.13.23c0,.08-.11.14-.25.14h-9.95a8,8,0,0,0-1.54.13Zm2.58,8.84c0,.23-.07.35-.21.41a3.27,3.27,0,0,1-1.41.22c-.61,0-.78-.09-.78-.45.09-2.18.11-2.39.11-3.63a32.73,32.73,0,0,0-.11-3.73A20.2,20.2,0,0,1,276.81,13h5.44c.52-.55.67-.72,1.2-1.24.82.54,1.07.73,1.8,1.26.21.16.3.27.3.35s-.21.32-.78.59v.86c0,.88,0,2.25.08,4,0,.23,0,.36-.14.44a2.85,2.85,0,0,1-1.49.28c-.63,0-.76-.09-.78-.44v-.93h-5.92Zm-2-17.24a8.53,8.53,0,0,0,1.73.17h5.46c.67-.72.88-.93,1.51-1.6,1.07.71,1.38.94,2.31,1.66.1.1.16.17.16.23s-.1.15-.29.15h-9.15a8.8,8.8,0,0,0-1.58.12Zm2,16.1h5.92V13.42h-5.92Z" fill="#001c3e"/><path d="M305.08,10.62v1.52a9.54,9.54,0,0,1,2.62,1.26,1.69,1.69,0,0,1,.78,1.4c0,.8-.46,1.47-1,1.47-.31,0-.5-.21-.65-.69a13.64,13.64,0,0,0-.73-1.64,6.05,6.05,0,0,0-1-1.4V14c0,1.28,0,1.28.08,5.08v.07c0,.38-.31.48-1.47.48-.52,0-.61-.06-.61-.36.05-1.19.13-3.61.13-4.2V13.86a14.62,14.62,0,0,1-4.49,3.9l-.17-.21a20.57,20.57,0,0,0,4.39-6.93H301.8v.53c0,.42-.21.5-1.24.5-.6,0-.69-.06-.69-.4,0-1.45.06-2.14.06-3.23,0-1.51,0-2.31-.06-3.27.93.46,1.2.6,2.08,1.11h1.22V3.67h-2.65a9,9,0,0,0-1.28.11l-.12-.71a6.16,6.16,0,0,0,1.42.16h2.63a26.85,26.85,0,0,0-.13-3c.61.07,1.07.13,1.39.15,1.22.11,1.51.19,1.51.42s-.21.31-.84.48V3.23h1.11c.51-.63.65-.84,1.18-1.44.8.67,1.05.86,1.78,1.55.09.1.13.15.13.21s-.09.12-.23.12h-4V5.86h1.28l1-1.05a14.59,14.59,0,0,1,1.4,1.05c.15.12.21.21.21.29s-.12.27-.58.51c0,1.49,0,1.49,0,4.26,0,.19,0,.27-.07.33s-.5.23-1.13.23-.69-.06-.69-.37v-.49ZM303.17,6.3H301.8v3.88h1.37Zm3.36,0h-1.45v3.88h1.45Zm5.08,8.63c0,.29-.11.36-.53.42l1.22.65c1,.52,1.28.73,1.28.9s-.21.27-.46.27a3.9,3.9,0,0,1-.63-.06,16.39,16.39,0,0,1-6.28,2.6l-.1-.27A13.62,13.62,0,0,0,311,15.35c-.25,0-.59,0-.82,0-.59,0-.72-.08-.72-.46.07-2.21.11-4.07.11-7.06,0-2,0-3.15-.11-4.3,1,.5,1.35.67,2.31,1.2h.3a13.44,13.44,0,0,0,.31-2.71h-2.47a6.68,6.68,0,0,0-1.24.1l-.15-.71a5.35,5.35,0,0,0,1.39.17h5.45c.61-.72.8-.95,1.43-1.62.95.71,1.22.92,2.14,1.7.11.11.15.17.15.23s-.1.13-.23.13h-3.76a15.58,15.58,0,0,1-2.33,2.71h2.63c.48-.55.63-.72,1.13-1.26.69.54.9.71,1.55,1.24.15.12.21.21.21.31s-.16.32-.63.55V8c0,1.76,0,1.76.11,6.68a.73.73,0,0,1-.06.35c-.15.19-.59.28-1.41.28-.65,0-.76-.07-.78-.36v-.34h-3.86Zm3.86-9.72h-3.86V7.68h3.86Zm-3.86,2.91v2.65h3.86V8.12Zm0,3.09v2.94h3.86V11.21Zm2.18,4.18c3.7.65,4.85,1.26,4.85,2.54,0,.78-.52,1.6-1,1.6-.29,0-.44-.13-.79-.76a11.48,11.48,0,0,0-3.15-3.17Z" fill="#001c3e"/></svg>