<?xml version="1.0" encoding="utf-8"?>
<!-- Generator: Adobe Illustrator 26.0.1, SVG Export Plug-In . SVG Version: 6.00 Build 0)  -->
<svg version="1.1" id="b7eaa382-13c7-401d-80fb-08eb3987d977"
	 xmlns="http://www.w3.org/2000/svg" xmlns:xlink="http://www.w3.org/1999/xlink" x="0px" y="0px" width="430.9px" height="74.5px"
	 viewBox="0 0 430.9 74.5" style="enable-background:new 0 0 430.9 74.5;" xml:space="preserve">
<style type="text/css">
	.st0{fill:#FFFFFF;}
</style>
<path class="st0" d="M35.4,17c-2.5,0-5,0.2-7.5,0.5l-0.6-3.2c2.7,0.6,5.4,0.9,8.2,0.9h8.4V8.1c0-2.7-0.2-5.3-0.6-8
	c8.3,0.8,9.1,1,9.1,1.9c0,0.6-0.5,1-3.2,2v11.2h11.8c1.4-2,2.9-3.8,4.6-5.5c3,2.6,3.9,3.4,6.7,6.1c0.3,0.4,0.4,0.6,0.4,0.8
	S72.2,17,71.8,17H49.1v14.1H59c1.4-1.7,1.8-2.2,3.3-4l5.4,4.6c0.7,0.6,1,1,1,1.4c-0.1,0.3-0.2,0.6-0.5,0.7c-0.9,0.5-1.8,0.9-2.8,1.2
	c-5.2,8.6-9.4,13.8-15.7,19.8c7.2,4.8,15.4,8.1,23.9,9.7l-0.3,1.4c-3.4,0.6-4.6,1.8-5.9,5.5c-4.4-1.6-8.6-3.7-12.4-6.5
	c-3.1-2.1-6-4.4-8.7-7c-8.2,6.6-17,11.3-28.9,15L17,71.7c9.9-4.2,17-8.7,26.2-17c-5.7-6.1-9.7-13.5-11.7-21.6
	c-1.1,0-2.2,0.1-3.3,0.3l-0.6-3c-5.5,4.5-6.6,5.3-10.6,8.2v15.1v13.4c-0.2,3.4-1.4,4.3-8.2,6.1c-0.3-3.4-1.5-4.2-8.4-5.6l0.1-1.4
	c3.8,0.5,4.4,0.6,10.3,1c0.7-0.1,1-0.5,1-1V41.5c-2.1,1.5-2.4,1.8-6.5,4.2c0,2.6-0.2,3.4-1,3.4c-0.4,0-0.7-0.3-1.1-1
	C3,47.8,2.8,47.3,2,45.5c-0.7-1.7-0.8-2.1-1.6-4c3.9-1.3,7.8-2.9,11.4-4.7V19.6H5.7c-1.7,0-3.4,0.1-5,0.4L0,17
	c1.8,0.5,3.8,0.8,5.7,0.7h6.2v-7.5c0.1-3.4-0.1-6.8-0.5-10.2c8.2,0.9,9.3,1,9.3,1.9c0,0.7-0.6,1-3.7,2.1v13.7h1.5
	c1.4-1.9,1.8-2.5,3.4-4.3c2.4,2.2,3.1,2.8,5.2,5c0.2,0.2,0.3,0.5,0.3,0.7c0,0.3-0.3,0.5-0.7,0.5H17v15c5.8-3,7.5-3.9,11.2-6.2l0.8,1
	l-1.4,1c2.5,0.6,5.2,0.8,7.8,0.7h8.4V17H35.4z M35.4,32.9c-0.3,0-0.6,0-2.2,0.1c3,8.2,6.7,13.6,13,19c5.7-5.4,10.2-11.9,13.5-19
	L35.4,32.9z"/>
<path class="st0" d="M97.7,37.5c-2.7,3.3-5.8,6.2-9.2,8.7l-0.6-0.9c4-4.6,7.6-9.6,10.5-15c2.3-4.1,4.2-8.4,5.8-12.8
	c6.9,2.5,7.3,2.6,7.3,3.4c0,0.9-0.7,1.2-2.9,1.4c-2,3.8-4.5,7.4-7.2,10.8c3.4,0.7,3.8,0.9,4,1.8c0,0.5-0.9,0.9-2.4,1.3v13.2
	c0,5.2,0,9.3,0.1,12.3v9.5c-0.3,0.6-0.6,0.9-1.9,1c-0.8,0.1-1.5,0.1-2.3,0.2c-0.8,0-1.1-0.2-1.3-1c0.2-5.4,0.2-5.4,0.2-21.5
	L97.7,37.5z M89.1,22.6c3.9-4,7.3-8.5,10.2-13.3c1.9-2.9,3.5-6,4.9-9.3c2.5,0.8,4.9,1.7,7.3,2.8c0.6,0.2,0.7,0.4,0.7,0.8
	c0,0.8-0.7,1-3.5,1c-5.3,7.2-11.6,13.5-18.7,18.8L89.1,22.6z M106.9,63.9c1.8-4.5,2.6-7.7,4.4-17.1c1.2-6,1.9-12.1,2.1-18.2v-1
	c7,1.3,8.1,1.7,8.1,2.5c0,0.6-0.6,1-2.9,1.4c-0.3,1.5-0.6,2.8-0.7,3.6c-2.2,11.1-2.6,12.6-4.6,18.2c-1.4,3.8-3.1,7.5-5,11.1
	L106.9,63.9z M133.5,18.1c1.5-1.7,1.5-1.8,3.1-3.7c-1-0.2-1.1-0.5-1.6-1.9c-0.8-2.7-2-5.3-3.5-7.7l0.6-0.7c2.1,1,4.1,2.3,5.9,3.8
	c0.7,0.5,1.1,1.3,1.1,2.2c0,1.6-0.7,3.2-2,4.2c1.7,1.5,3.4,3.2,5,4.9c0.2,0.2,0.3,0.4,0.3,0.6c0,0.3-0.3,0.5-0.9,0.5h-13.4v3
	c0,1.3-0.1,2.6-0.1,3.9v3c0,9.8,0.2,34.2,0.4,40.6c-0.1,0.5-0.4,0.9-0.9,1c-1.2,0.3-2.4,0.4-3.6,0.5c-0.8,0-1.1-0.3-1.1-0.9v-0.4
	c0.3-21,0.3-23.7,0.3-29.9V20.2h-5.8c-1.6,0-3.3,0.1-4.9,0.3l-0.6-3c1.9,0.3,3.9,0.5,5.8,0.6h5.4v-4.8c0-6,0-6-0.3-11.8
	c7.3,1,7.8,1.1,7.8,2c0,0.5-0.2,0.6-2.2,1.5l-0.2,13.1L133.5,18.1z M132.4,28.5c4.1,8.2,5,10.2,6.6,14.5c1.8,5,2.3,7,2.3,9.3
	c0,3.6-2.2,8.1-3.8,8.1c-0.6,0-0.7-0.2-1-2.7c-1-12.6-2.7-21.5-5.4-28.6L132.4,28.5z M154.5,47.2c0,0.9,0,3.7,0.1,7.8
	c0.1,3.9,0.1,5.2,0.1,11.6c-0.1,2-0.4,2.9-1.5,3.8c-1,0.8-2.3,1.2-7,2.1c-0.4-3.9-1.4-4.6-9.8-5.8v-1.1c5.8,0.3,7.4,0.4,12,0.4
	c0.8-0.1,0.9-0.2,0.9-1V26h-4.3c-1.7-0.1-3.5,0.1-5.2,0.5l-0.6-3c2,0.5,4.1,0.7,6.2,0.7h8.2c1.6-2.2,2.2-2.9,3.8-5.1
	c2.9,2.5,3.7,3.3,6.4,6c0.1,0.1,0.2,0.3,0.2,0.5c0,0.2-0.3,0.5-0.7,0.5h-8.7L154.5,47.2z M152.3,8.2c1.7-2.2,2.2-2.8,3.7-4.8
	c2.6,2.4,3.5,3.2,6.1,5.6c0.1,0.2,0.2,0.4,0.2,0.6c0,0.3-0.3,0.5-0.9,0.5h-16.2c-1.4,0-2.8,0.1-4.2,0.3l-0.5-2.7
	c1.6,0.5,3.3,0.7,5,0.6L152.3,8.2z"/>
<path class="st0" d="M192.7,3.8c2.8,0.1,5.5,0.6,8.1,1.5c1.6,0.6,2.2,1.4,2.2,2.6V8c0,0.6-0.1,0.6-0.6,2.1c-1,2.7-1.8,9.6-1.8,16.2
	c0,4.7,0.6,5.9,3.1,5.9c1.7,0,3.4-0.6,10.7-4.1c1-0.6,2.1-0.9,3.3-1c1.9,0,3.8,1.7,3.8,3.4c0,1.1-0.7,2-1.7,2.4
	c-1.8,0.7-3.5,1.2-5.4,1.7c-9.7,2.7-15,5.1-20,9c-4.3,3.4-6.2,6.5-6.2,10.2c0,5.8,4.6,8.7,13.4,8.7c6.2-0.2,12.5-0.9,18.6-2.3
	c0.5-0.1,1.1-0.2,1.6-0.2c2.1,0,4.3,2,4.3,3.9c0,1.4-0.9,2.2-3.4,2.6c-5.1,0.7-10.2,1-15.4,1c-5.8,0-10.2-0.6-13.6-1.8
	c-5.4-2-8.7-6.6-8.7-11.8c0-4.6,2.6-9,7.8-13.4c3-2.5,6.3-4.6,9.8-6.4c-1.4,0.1-2.8-0.3-3.8-1.2c-1.2-0.9-1.9-2.6-2.3-6.1
	c-0.2-1.9-0.3-3.7-0.6-9.7c-0.2-6.8-0.3-8-1-9.2c-0.9-1.5-2.4-2.3-5.8-2.9C190.1,4.1,191.4,3.6,192.7,3.8z"/>
<path class="st0" d="M249.3,15.4c1.9,0.4,3.9,0.6,5.8,0.6h12.6c1.8-2,2.4-2.6,4.3-4.6c2.7,2.2,3.5,3,6.2,5.3
	c0.1,0.2,0.2,0.4,0.2,0.6c0,0.3-0.2,0.5-0.8,0.5h-22.6c-1.8,0-3.5,0.1-5.3,0.4L249.3,15.4z M251.5,4.5c1.9,0.4,3.9,0.6,5.9,0.6h7.9
	c1.2-1.5,2.5-2.9,3.9-4.2c2.1,1.4,4.1,3,6,4.7c0.3,0.2,0.5,0.5,0.6,0.9c0,0.4-0.2,0.5-1.1,0.5h-17.3c-1.8,0-3.6,0.1-5.4,0.4
	L251.5,4.5z M252.1,26.1c1.8,0.4,3.6,0.6,5.4,0.6h8.3c1.6-1.9,2.1-2.5,3.8-4.3c2.6,2.2,3.4,2.8,5.8,5c0.3,0.3,0.5,0.6,0.5,0.7
	c-0.1,0.2-0.2,0.4-0.5,0.4h-17.9c-1.6,0-3.2,0.1-4.8,0.4L252.1,26.1z M252.1,37.1c1.7,0.4,3.5,0.6,5.3,0.6h8.5
	c1.6-2,2.1-2.6,3.8-4.4c2.6,2.1,3.4,2.8,5.8,5c0.4,0.4,0.6,0.6,0.6,0.9s-0.2,0.4-0.6,0.4h-17.9c-1.6,0-3.2,0.1-4.8,0.4L252.1,37.1z
	 M258.3,71.4c0,0.5-0.4,0.9-0.9,1c-1,0.2-2.1,0.3-3.1,0.3c-1,0-1.2-0.2-1.2-1c0.2-4.5,0.2-10,0.2-17.1c0-3-0.1-6.2-0.2-10.2
	c2.1,1.2,4.2,2.5,6.2,4h8.6c1.1-1.4,1.4-1.8,2.6-3.3c1.4,0.9,2.8,1.9,4.2,3c0.7,0.5,1,0.8,1,1c0,0.6-0.8,1.3-2.5,2.3
	c0,14.6,0,14.6,0.2,18.9c-0.1,1-1,1.3-3.5,1.3c-1.1,0-1.4-0.2-1.5-0.7v-2.3h-10L258.3,71.4z M258.3,66.8h10V50.2h-10V66.8z
	 M295.3,13.8c-1.9,3.4-4.2,6.7-6.7,9.8c-3.7,4.6-8.1,8.6-13.2,11.7l-0.8-1c6.6-5.6,11.9-12.6,15.5-20.5h-5.8c-1.9,0-3.7,0.1-5.6,0.3
	l-0.5-2.7c2,0.4,4.1,0.6,6.1,0.6h6.6c1.8-3.8,3.1-7.9,4-12c7,1.4,7.3,1.4,7.8,1.7c0.7,0.2,1,0.6,1,1c0,0.6-0.9,1-3.8,1.7
	c-1.6,3.6-2.2,4.8-3.7,7.7h15.3c2-2.3,2.6-3,4.7-5.1c3,2.4,3.8,3.1,6.6,5.6c0.4,0.4,0.6,0.6,0.6,0.9c0,0.3-0.3,0.5-0.6,0.5h-19.5
	c1.4,2.4,3.1,4.6,5.2,6.5c4.5,4.3,8.9,6.6,16.6,8.8l-0.2,1.3c-2.8,0.4-4.1,1.4-5.4,4.1c-5.6-3-10.3-7.3-13.8-12.6
	c-1.8-2.7-1.8-3-4-8L295.3,13.8z M285.4,40.1c-2,0-4.1,0.2-6.1,0.6l-0.6-3c2.3,0.5,4.7,0.7,7,0.6h22.9c1.4-1.7,2.8-3.3,4-4.7
	c2.2,1.7,4.2,3.5,6.2,5.4c0.2,0.2,0.3,0.4,0.3,0.6c0,0.2-0.2,0.4-0.5,0.5h-24.2l-1.1,2.6l-2,4.9h16.7c1.4-1.4,1.8-1.9,3.3-3.4
	c2,1.6,2.6,2.1,4.5,3.8c0.6,0.6,0.7,0.9,0.7,1c0,0.5-0.9,1.1-2.9,2.1c-1.7,11.9-2.2,14-3.6,17s-3.8,4.3-10.2,5.4
	c-0.3-2.3-1-3.3-2.6-4.2c-1.4-0.7-2.9-1-9.8-1.8l0.2-1.4c10.4,0.7,13.5,0.9,14.7,0.9c2.5,0,2.7-0.2,3.6-2.6c1.3-4.9,2.1-9.9,2.6-15
	h-17.9c-0.6,1.5-1.3,2.9-2.1,4.3c-0.4,1-0.9,1.2-2,1.2c-2.4,0-3.6-0.2-3.6-0.7c0-0.2,0.1-0.3,0.2-0.5c2.4-4.4,4.5-9,6.2-13.7
	L285.4,40.1z M286.2,27.9c1.8,0.4,3.7,0.7,5.6,0.6h7.8c1.5-2.1,2-2.7,3.6-4.6c2.6,2.2,3.3,3,5.5,5.2c0.4,0.4,0.6,0.6,0.6,0.9
	s-0.2,0.4-1,0.4h-16.5c-1.6,0-3.3,0.1-4.9,0.3L286.2,27.9z"/>
<path class="st0" d="M359.9,72.2c4.9-2.9,9.3-6.7,12.7-11.2c5.6-7.4,8.4-16.5,8.4-27c0-7-1.2-13.5-3-16.5c-1.1-2.1-3.3-3.5-5.7-3.5
	c-4,0-7.7,3.4-10.6,10c-2.4,5.4-3.7,11.3-3.8,17.2c0,1.4,0.1,2.2,0.3,5c0.1,0.6,0.1,1.1,0.1,1.7c0,1.5-0.7,2.4-2.1,2.4
	c-3,0-5-6.5-5-16.4c0-6.6,0.5-10.8,2.6-21.4c0.5-1.9,0.8-3.9,0.9-5.8c0-2.6-1.1-4.1-4.3-5.7c0.5-0.2,0.9-0.3,1.4-0.4
	c2.3,0.3,4.6,1.2,6.4,2.6c2.2,1.6,3.1,2.9,3.1,4.5c0,1-0.2,1.5-1.1,3c-3,5-5.8,16.4-5.8,23.8c0,0.7,0,1.5,0.1,3h0.2
	c2.4-10.2,5.4-16.9,9.3-21c3-3.2,6.2-4.7,9.8-4.7c7.7,0,13.1,9.4,13.1,22.8c0,10.4-2.9,19-8.7,26.2c-4.7,5.8-10.1,9.6-17.7,12.6
	L359.9,72.2z"/>
<path class="st0" d="M430.9,64.2c0,5.7-4.6,10.3-10.3,10.3s-10.3-4.6-10.3-10.3s4.6-10.3,10.3-10.3
	C426.2,53.9,430.8,58.5,430.9,64.2z M412.8,64.2c0,4.3,3.5,7.7,7.8,7.8c4.3,0,7.8-3.5,7.8-7.8c0-4.3-3.5-7.8-7.8-7.8
	C416.2,56.4,412.8,59.9,412.8,64.2z"/>
</svg>
