<svg xmlns="http://www.w3.org/2000/svg" width="157.56" height="17.35" viewBox="0 0 157.56 17.35"><g id="Layer_2" data-name="Layer 2"><g id="レイヤー_1" data-name="レイヤー 1"><path d="M96.17,11H90.66V10.5h4.13a.92.92,0,1,0,0-1.84H90.66V8.18h4.13a.92.92,0,1,0,0-1.83H92.86l.25-.48h3.06a.92.92,0,1,0,0-1.84H94.76V3.15a.92.92,0,0,0-1.84,0V4h-.48V3.15a1.5,1.5,0,0,0-2.92,0V4H89V3.15a1.51,1.51,0,0,0-2.93,0V4h-.48V3.15a.92.92,0,1,0-1.83,0V4H82.39a.92.92,0,0,0,0,1.84h3.06l.25.48H83.77a.92.92,0,1,0,0,1.83H87.9v.48H83.77a.92.92,0,0,0,0,1.84H87.9V11H82.39a.92.92,0,0,0,0,1.84h1.79L84,13a3.68,3.68,0,0,1-.44.31l-.15.09,0,0h0a1,1,0,0,0-.64,1.3,1,1,0,0,0,1,.71,1,1,0,0,0,.33-.06,3.66,3.66,0,0,0,.85-.46,14.81,14.81,0,0,0,1.26-1c.2-.17.37-.34.53-.5a2.8,2.8,0,0,0,.43-.56v0h.83v1.55a1.38,1.38,0,1,0,2.76,0V12.81h.83v0a1.8,1.8,0,0,0,.29.4,9,9,0,0,0,1.29,1.18c.25.19.5.38.74.54a3.14,3.14,0,0,0,.75.39,1,1,0,0,0,.33.06,1,1,0,0,0,1-.71,1,1,0,0,0-.66-1.31h0a6.6,6.6,0,0,1-.83-.57h1.79a.92.92,0,1,0,0-1.84Zm-7.9-5.1h2L90,6.35H88.52Z" fill="#fff"/><path d="M78.93,13h-4V5.93h4a1.27,1.27,0,0,0,0-2.53H67.71a1.27,1.27,0,1,0,0,2.53h4V13h-4a1.26,1.26,0,1,0,0,2.52H78.93a1.26,1.26,0,0,0,0-2.52Z" fill="#fff"/><path d="M55.78,12.45a1.81,1.81,0,0,1-.78-.63,3.05,3.05,0,0,1-.32-1.64V4.76a1.61,1.61,0,1,0-3.22,0v5.42a6.23,6.23,0,0,0,.81,3.35,5,5,0,0,0,2.07,1.8,1.72,1.72,0,0,0,.72.17,1.61,1.61,0,0,0,.72-3.05Zm9.35-7.69a1.61,1.61,0,1,0-3.21,0v5.42a3.12,3.12,0,0,1-.33,1.64C61,13.36,59,13,58.4,13.27s-.87.46-.83,1.44c0,.5.73.88,1.38.94A8.8,8.8,0,0,0,62.42,15a3.87,3.87,0,0,0,1.9-1.51,6.14,6.14,0,0,0,.81-3.35Z" fill="#fff"/><path d="M34.42,5.7a2.57,2.57,0,0,0-2.36-1.61H21.51a1.61,1.61,0,1,0,0,3.22h9.21c-.53,1.13-2.14,4.29-2.14,4.29a9.22,9.22,0,0,1-.86,1.22c-.37.37-.83.45-1.94.45H23.5a1.38,1.38,0,0,0-1.38,1.38,1.33,1.33,0,0,0,1.29,1.29H25a17.07,17.07,0,0,0,4.13-.52,6.26,6.26,0,0,0,3.21-2.82A33.65,33.65,0,0,0,34.6,8.39,3.59,3.59,0,0,0,34.42,5.7Z" fill="#fff"/><path d="M107.62,4.43V3.64a.89.89,0,0,1,1-1c.77,0,1.15.24,1.15,1v.79h2.28c.33,0,1.1,0,1.1.91,0,.7-.26,1-1.1,1h-2.28V7.67h2.64c.34,0,1.1,0,1.1.9,0,.69-.26,1-1.1,1h-1.93a9.48,9.48,0,0,0,2.62,3.15c.39.35.51.55.51.84a1.31,1.31,0,0,1-1.17,1.25c-1.07,0-2.34-2.21-2.67-2.92v2.79a.89.89,0,0,1-1,1c-.75,0-1.15-.24-1.15-1V11.9a9.25,9.25,0,0,1-1.46,2.16c-.44.5-.77.77-1.17.77a1.29,1.29,0,0,1-1.27-1.2c0-.39.06-.44,1.13-1.4a9.9,9.9,0,0,0,2-2.62H105a1.31,1.31,0,0,1-.33,0c.38.43.51.58.51.91a.91.91,0,0,1-.92.86c-.31,0-.65-.16-1.11-1v4.42a.88.88,0,0,1-1,1c-.71,0-1.11-.19-1.11-1V11.39c-.37.82-.67,1.18-1.12,1.18-.65,0-1-.71-1-1.18s0-.42.73-1.48A10.35,10.35,0,0,0,101,7h-.74c-.32,0-1.1,0-1.1-.89,0-.67.22-1,1.1-1H101V3.62c0-.49.12-1,1-1,.64,0,1,.22,1,1V5.05h.49a.83.83,0,0,1,.82.37,7.09,7.09,0,0,0,.77-1.69c.16-.49.28-.86.93-.86.48,0,1.07.29,1.07.82a2.23,2.23,0,0,1-.18.74Zm-1.47,2c-.56,1-.79,1.15-1.22,1.15a1.25,1.25,0,0,1-1-.56h-.77v.55a8.79,8.79,0,0,0,.75,1.14c0-.55.15-1,1.1-1h2.65V6.38Z" fill="#fff"/><path d="M116.69,10.08h-1.55c-.42,0-1.09-.1-1.09-.95,0-.67.26-1.05,1.09-1.05h5.41c.39,0,1.09.08,1.09,1,0,.71-.34,1-1.09,1H119v2.75c.36,0,1.9-.29,2.21-.29a.91.91,0,0,1,.85,1c0,.78-.5.88-1.63,1.08-2,.37-5.22.76-5.65.76-1,0-1-1-1-1.18,0-.78.58-.89,1-1l1.9-.19ZM115,6.75c-.7,0-1.13-.29-1.13-1s.27-1,1.13-1h6.54c0-.14,0-1,0-1,0-.46,0-1.12,1.16-1.12.6,0,1.18.15,1.22.75,0,.2,0,1.14,0,1.4h1.35c-.13-.16-.24-.33-.36-.51-.31-.49-.36-.54-.36-.76,0-.67.9-.81,1.25-.81.85,0,1.46,1.14,1.46,1.56a.62.62,0,0,1-.37.52h.21c.62,0,1.11.23,1.11,1s-.28,1-1.11,1H124a15.36,15.36,0,0,0,.92,5.46s.37.88.84.88.51-.33.66-.59a.94.94,0,0,1,.88-.53,1,1,0,0,1,1.11,1,2.72,2.72,0,0,1-.84,1.85,2.39,2.39,0,0,1-1.76.8c-2.16,0-3.09-2.6-3.26-3.09a22.81,22.81,0,0,1-.9-5.81Z" fill="#fff"/><path d="M132.78,8c-.39,0-.94-.06-1.07-.67a5.54,5.54,0,0,1-2.05.76,1.17,1.17,0,0,1-1.13-1.22c0-.64.45-.8.81-.94a12.82,12.82,0,0,0,4.37-2.49c.83-.7,1.1-.94,2-.94s1.23.25,2,.94A13,13,0,0,0,142.15,6c.44.17.82.33.82,1a1.2,1.2,0,0,1-1.16,1.22,6,6,0,0,1-2-.78c-.14.57-.61.67-1.07.67Zm6.59,2.92a15.89,15.89,0,0,1,2.14,2.12c.83,1,.85,1.12.85,1.41,0,.69-.9,1.1-1.44,1.1a.78.78,0,0,1-.68-.33l-.39-.52c-1.56.16-2.26.23-4.4.35-1.93.13-5.24.29-5.28.29a1,1,0,0,1-1.12-1.07.87.87,0,0,1,.59-.91,6.62,6.62,0,0,1,1.55-.09,15.7,15.7,0,0,0,1.1-2.35H130c-.78,0-1.11-.3-1.11-1.06,0-.93.84-.93,1.11-.93h11.48c.72,0,1.1.26,1.1,1a.94.94,0,0,1-1.1.95ZM137.9,6.17a14.27,14.27,0,0,1-1.7-1.38c-.23-.22-.3-.29-.45-.29s-.2.06-.44.29a17.19,17.19,0,0,1-1.7,1.38Zm-3.1,4.76c-.29.6-.58,1.23-1.19,2.29,1.79-.05,2-.06,4.88-.2-.77-.79-.92-.94-.92-1.3s.18-.57.72-.79Z" fill="#fff"/><path d="M147.91,4.54c.94,0,1.42.44,1.42,1.26s-.21,1.36-1.27,2.7c.22.23.46.44,1,.92s.77.66.77,1a1.1,1.1,0,0,1-1.05,1c-.51,0-.85-.38-1.19-.79v4.06c0,.79-.38,1-1.25,1s-1-.53-1-1V11.21a1.68,1.68,0,0,1-1,.4,1.27,1.27,0,0,1-1.19-1.19c0-.56.33-.78,1.33-1.43a6,6,0,0,0,2.27-2.35c0-.17-.18-.17-.25-.17H144.4c-.75,0-1.11-.27-1.11-1,0-.92.86-.92,1.11-.92h.91V3.61c0-.74.33-1,1.22-1s1.07.64,1.07,1v.94Zm8.28,1.52c.35,0,1.18,0,1.18,1s-.34,1.12-1.18,1.12h-1.81v5.11h2c.32,0,1.16,0,1.16,1,0,.78-.31,1.1-1.16,1.1h-6.57c-.36,0-1.31,0-1.31-1,0-.81.4-1.1,1.31-1.1H152V8.16h-1.78a.94.94,0,0,1-1.11-1c0-.82.34-1.11,1.11-1.11H152V3.64c0-.41.09-1,1.07-1s1.28.26,1.28,1V6.06Z" fill="#fff"/><path d="M46.51,4.77a1,1,0,1,0-1-1A1,1,0,0,0,46.51,4.77Z" fill="#fff"/><path d="M49.34,4.77a1,1,0,1,0-1-1A1,1,0,0,0,49.34,4.77Z" fill="#fff"/><path d="M37.19,3.66a1.61,1.61,0,0,0-1.61,1.61v8.41a1.61,1.61,0,0,0,3.22,0V5.27A1.61,1.61,0,0,0,37.19,3.66Z" fill="#fff"/><path d="M49.28,10H48.8V9.45h.33a1.26,1.26,0,1,0,0-2.52H48.8V6.41h.33a1.25,1.25,0,0,0,1.14-1.8,1.27,1.27,0,0,1-2.18-.72h-.33A1.26,1.26,0,0,1,46.51,5a1.28,1.28,0,0,1-1.26-1.12H40.5a1.26,1.26,0,1,0,0,2.52h4.86v.52H40.5a1.26,1.26,0,1,0,0,2.52h4.86V10H42.05a3.27,3.27,0,0,0-1.34.4,2.71,2.71,0,0,0-1,.9,3,3,0,0,0,.7,4,3.16,3.16,0,0,0,1.85.65H46a3,3,0,0,0,2.84-2.76V12.5h.48a1.27,1.27,0,0,0,0-2.53ZM45,13.28H42s-.38,0-.38-.35.36-.32.38-.32h3a.32.32,0,0,1,.32.32A.35.35,0,0,1,45,13.28Z" fill="#fff"/><polygon points="3.85 13.82 2.58 13.82 2.58 14.31 2.93 14.31 2.93 17.35 3.5 17.35 3.5 14.31 3.85 14.31 3.85 13.82" fill="#fff"/><polygon points="10.57 17.35 10.57 13.82 11.14 13.82 11.14 17.35 10.57 17.35 10.57 17.35" fill="#fff"/><path d="M5,13.82H4.49A.48.48,0,0,0,4,14.3V15a.66.66,0,0,0,.26.47l.47.3c.09.06.1.1.1.16v.81a.1.1,0,0,1-.1.1.11.11,0,0,1-.1-.1v-.84H4v1a.48.48,0,0,0,.49.48H5a.48.48,0,0,0,.48-.48v-1a.45.45,0,0,0-.11-.36l-.45-.3c-.08,0-.27-.19-.27-.31v-.54a.11.11,0,0,1,.1-.1.1.1,0,0,1,.1.1V15h.63V14.3A.48.48,0,0,0,5,13.82Z" fill="#fff"/><path d="M8.75,15V14.3a.48.48,0,0,0-.49-.48h-1v3.53h1a.48.48,0,0,0,.49-.48v-1a.47.47,0,0,0-.24-.42A.53.53,0,0,0,8.75,15Zm-.63,1.72a.11.11,0,0,1-.1.1h-.1V15.74H8a.11.11,0,0,1,.1.1Zm0-1.73a.1.1,0,0,1-.1.1h-.1v-.82H8a.12.12,0,0,1,.1.1Z" fill="#fff"/><path d="M6.48,13.82v2.94a.11.11,0,0,1-.1.1.1.1,0,0,1-.1-.1V13.82H5.65v3.05a.47.47,0,0,0,.48.48h.49a.47.47,0,0,0,.48-.48V13.82Z" fill="#fff"/><path d="M9.91,13.82H9.42a.48.48,0,0,0-.49.48v2.57a.48.48,0,0,0,.49.48h.49a.48.48,0,0,0,.48-.48V14.3A.48.48,0,0,0,9.91,13.82Zm-.15,2.94a.1.1,0,0,1-.1.1.11.11,0,0,1-.1-.1V14.41a.11.11,0,0,1,.1-.1.1.1,0,0,1,.1.1Z" fill="#fff"/><polygon points="4.05 9.1 6.62 13.51 2.57 13.51 0 9.1 9.01 0 13.06 0 4.05 9.1" fill="#fff"/><polygon points="8.57 9.1 11.14 13.51 7.09 13.51 4.52 9.1 13.53 0 17.58 0 8.57 9.1" fill="#fff"/></g></g></svg>