<svg xmlns="http://www.w3.org/2000/svg" width="59.26" height="58.49" viewBox="0 0 59.26 58.49"><g id="Layer_2" data-name="Layer 2"><g id="レイヤー_1" data-name="レイヤー 1"><polygon points="12.97 46.57 8.71 46.57 8.71 48.23 9.88 48.23 9.88 58.49 11.8 58.49 11.8 48.23 12.97 48.23 12.97 46.57"/><polygon points="35.64 58.49 35.64 46.57 37.56 46.57 37.56 58.49 35.64 58.49 35.64 58.49"/><path d="M16.77,46.57H15.12A1.63,1.63,0,0,0,13.5,48.2v2.41a2.23,2.23,0,0,0,.87,1.6c.33.19,1.41.91,1.58,1s.33.34.33.52v2.74a.34.34,0,0,1-.67,0V53.67H13.5v3.19a1.63,1.63,0,0,0,1.62,1.63h1.65a1.63,1.63,0,0,0,1.63-1.63V53.65a1.54,1.54,0,0,0-.37-1.2c-.3-.24-1.26-.88-1.52-1s-.9-.63-.9-1V48.57a.34.34,0,1,1,.67,0v2.07H18.4V48.2A1.63,1.63,0,0,0,16.77,46.57Z"/><path d="M29.48,50.68V48.2a1.63,1.63,0,0,0-1.63-1.63H24.57V58.49h3.28a1.63,1.63,0,0,0,1.63-1.63V53.48a1.63,1.63,0,0,0-.79-1.42A1.7,1.7,0,0,0,29.48,50.68Zm-2.12,5.81a.33.33,0,0,1-.33.33h-.34V53.05H27a.36.36,0,0,1,.33.34Zm0-5.82A.34.34,0,0,1,27,51h-.34V48.23H27a.36.36,0,0,1,.33.34Z"/><path d="M21.83,46.57v9.92a.34.34,0,0,1-.68,0V46.57H19V56.86a1.63,1.63,0,0,0,1.63,1.63h1.64a1.63,1.63,0,0,0,1.63-1.63V46.57Z"/><path d="M33.38,46.57H31.74a1.63,1.63,0,0,0-1.63,1.63v8.66a1.63,1.63,0,0,0,1.63,1.63h1.64A1.63,1.63,0,0,0,35,56.86V48.2A1.63,1.63,0,0,0,33.38,46.57Zm-.48,9.92a.34.34,0,0,1-.34.33.34.34,0,0,1-.34-.33V48.57a.34.34,0,0,1,.34-.34.34.34,0,0,1,.34.34Z"/><polygon points="13.65 30.66 22.31 45.52 8.66 45.52 0 30.66 30.38 0 44.03 0 13.65 30.66" fill="#ef4123"/><polygon points="28.89 30.66 37.54 45.52 23.89 45.52 15.24 30.66 45.62 0 59.26 0 28.89 30.66" fill="#25408f"/></g></g></svg>