<svg id="b7eaa382-13c7-401d-80fb-08eb3987d977" data-name="Layer 1" xmlns="http://www.w3.org/2000/svg" width="430.85" height="74.48" viewBox="0 0 430.85 74.48"><path d="M35.36,17a65.43,65.43,0,0,0-7.52.48l-.64-3.2a37.36,37.36,0,0,0,8.16.88h8.4V8.08a67.18,67.18,0,0,0-.56-8c8.32.8,9.12,1,9.12,1.92,0,.64-.48,1-3.2,2V15.2H60.88a44,44,0,0,1,4.56-5.52c3,2.64,3.92,3.44,6.72,6.08.32.4.4.56.4.8s-.32.48-.8.48H49.12V31.12H59c1.44-1.68,1.84-2.24,3.28-4l5.44,4.64c.72.64,1,1,1,1.36a1.07,1.07,0,0,1-.48.72,16.68,16.68,0,0,1-2.8,1.2c-5.2,8.56-9.36,13.84-15.68,19.76a65.19,65.19,0,0,0,23.92,9.68l-.32,1.36c-3.36.64-4.64,1.84-5.92,5.52A49,49,0,0,1,55,64.88a65.24,65.24,0,0,1-8.72-7c-8.16,6.64-17,11.28-28.88,15L17,71.68c9.92-4.24,17-8.72,26.16-17a49.27,49.27,0,0,1-11.68-21.6,22.76,22.76,0,0,0-3.28.32l-.64-3C22.08,34.88,21,35.68,17,38.64V53.76L17,67.12c-.24,3.44-1.36,4.32-8.16,6.08C8.56,69.76,7.36,69,.4,67.6l.08-1.36c3.76.48,4.4.56,10.32,1,.72-.08,1-.48,1-1V41.52C9.68,43,9.36,43.28,5.28,45.76c0,2.56-.24,3.36-1,3.36-.4,0-.72-.32-1.12-1-.16-.32-.4-.8-1.12-2.64C1.36,43.76,1.2,43.36.4,41.52A79.92,79.92,0,0,0,11.84,36.8V19.6H5.68a24.76,24.76,0,0,0-5,.4L0,17a20.13,20.13,0,0,0,5.68.72h6.16V10.24A67.15,67.15,0,0,0,11.36.08c8.24.88,9.28,1,9.28,1.92,0,.72-.56,1-3.68,2.08V17.76h1.52c1.36-1.92,1.84-2.48,3.36-4.32,2.4,2.16,3.12,2.8,5.2,5a1.3,1.3,0,0,1,.32.72c0,.32-.32.48-.72.48H17v15c5.84-3,7.52-3.92,11.2-6.16l.8,1-1.36,1a30.43,30.43,0,0,0,7.76.72h8.4V17Zm0,15.92c-.32,0-.56,0-2.24.08,3,8.16,6.72,13.6,13,19A61.84,61.84,0,0,0,59.6,33Z" fill="#001c3e"/><path d="M97.71,37.52a54.07,54.07,0,0,1-9.2,8.72l-.64-.88a81,81,0,0,0,10.48-15,75.15,75.15,0,0,0,5.76-12.8c6.88,2.48,7.28,2.64,7.28,3.36,0,.88-.72,1.2-2.88,1.44a66.73,66.73,0,0,1-7.2,10.8c3.36.72,3.84.88,4,1.76,0,.48-.88.88-2.4,1.28V49.36c0,5.2,0,9.28.08,12.32V71.2c-.32.64-.64.88-1.92,1a22.6,22.6,0,0,1-2.32.16c-.8,0-1.12-.24-1.28-1,.16-5.44.16-5.44.24-21.52ZM89.07,22.64A72,72,0,0,0,99.23,9.36,55.77,55.77,0,0,0,104.11.08a66.48,66.48,0,0,1,7.28,2.8c.56.24.72.4.72.8,0,.8-.72,1-3.52,1a88.76,88.76,0,0,1-18.72,18.8Zm17.84,41.28c1.76-4.48,2.56-7.68,4.4-17.12a119,119,0,0,0,2.08-18.16v-1c7,1.28,8.08,1.68,8.08,2.48,0,.64-.64,1-2.88,1.44-.32,1.52-.64,2.8-.72,3.6-2.16,11.12-2.56,12.64-4.56,18.16a85.84,85.84,0,0,1-5,11.12Zm26.56-45.84c1.52-1.68,1.52-1.76,3.12-3.68-1-.24-1.12-.48-1.6-1.92a31.87,31.87,0,0,0-3.52-7.68l.64-.72A27,27,0,0,1,138,7.92a2.76,2.76,0,0,1,1.12,2.16,5.12,5.12,0,0,1-2,4.16,70.13,70.13,0,0,1,5,4.88,1,1,0,0,1,.32.64c0,.32-.32.48-.88.48H128.19v3c0,1.28-.08,2.64-.08,3.92v3c0,9.76.24,34.24.4,40.56a1.21,1.21,0,0,1-.88,1,17.74,17.74,0,0,1-3.6.48c-.8,0-1.12-.32-1.12-.88v-.4c.32-21,.32-23.68.32-29.92V20.24h-5.76a43,43,0,0,0-4.88.32l-.64-3a41.94,41.94,0,0,0,5.84.56h5.36v-4.8c0-6,0-6-.32-11.84,7.28,1,7.76,1.12,7.76,2,0,.48-.16.64-2.24,1.52l-.16,13.12Zm-1.12,10.4c4.08,8.16,5,10.16,6.56,14.48,1.84,5,2.32,7,2.32,9.28,0,3.6-2.16,8.08-3.84,8.08-.64,0-.72-.24-1-2.72-1-12.56-2.72-21.52-5.36-28.56ZM154.51,47.2c0,.88,0,3.68.08,7.76.08,3.92.08,5.2.08,11.6-.08,2-.4,2.88-1.52,3.76-1,.8-2.32,1.2-7,2.08-.4-3.92-1.44-4.56-9.84-5.84V65.44c5.84.32,7.44.4,12,.4.8-.08.88-.16.88-1V26h-4.32a20.92,20.92,0,0,0-5.2.48l-.56-3a27.15,27.15,0,0,0,6.24.72h8.24c1.6-2.24,2.16-2.88,3.76-5.12,2.88,2.48,3.68,3.28,6.4,6a.88.88,0,0,1,.24.48c0,.24-.32.48-.72.48h-8.72Zm-2.24-39C154,6,154.43,5.44,156,3.36c2.64,2.4,3.52,3.2,6.08,5.6a1.06,1.06,0,0,1,.24.56c0,.32-.32.48-.88.48H145.23a34,34,0,0,0-4.16.32l-.48-2.72a15.27,15.27,0,0,0,5,.56Z" fill="#001c3e"/><path d="M192.71,3.76a25.89,25.89,0,0,1,8.08,1.52c1.6.64,2.24,1.44,2.24,2.56V8c0,.64-.08.64-.64,2.08-1,2.72-1.76,9.6-1.76,16.24,0,4.72.64,5.92,3.12,5.92,1.68,0,3.44-.64,10.72-4.08a7,7,0,0,1,3.28-1c1.92,0,3.84,1.68,3.84,3.36a2.54,2.54,0,0,1-1.68,2.4,50.57,50.57,0,0,1-5.36,1.68c-9.68,2.72-15,5.12-20,9-4.32,3.36-6.24,6.48-6.24,10.24,0,5.76,4.56,8.72,13.44,8.72a93.37,93.37,0,0,0,18.56-2.32,7.7,7.7,0,0,1,1.6-.24c2.08,0,4.32,2,4.32,3.92,0,1.44-.88,2.16-3.44,2.64a124,124,0,0,1-15.36,1c-5.84,0-10.24-.64-13.6-1.84-5.36-2-8.72-6.56-8.72-11.84,0-4.64,2.56-9,7.84-13.44a51.27,51.27,0,0,1,9.76-6.4,5.4,5.4,0,0,1-3.84-1.2c-1.2-.88-1.92-2.64-2.32-6.08-.24-1.92-.32-3.68-.56-9.68-.24-6.8-.32-8-1-9.2-.88-1.52-2.4-2.32-5.76-2.88A4.24,4.24,0,0,1,192.71,3.76Z" fill="#001c3e"/><path d="M249.26,15.36a22.64,22.64,0,0,0,5.84.56h12.56c1.84-2,2.4-2.64,4.32-4.56,2.72,2.24,3.52,3,6.24,5.28a2.17,2.17,0,0,1,.24.64c0,.32-.24.48-.8.48H255.1a35,35,0,0,0-5.28.4ZM251.5,4.48a27.21,27.21,0,0,0,5.92.64h7.92A49.2,49.2,0,0,1,269.26.88a48.65,48.65,0,0,1,6,4.72,1.91,1.91,0,0,1,.56.88c0,.4-.24.48-1.12.48H257.42a35.22,35.22,0,0,0-5.36.4Zm.56,21.6a25.45,25.45,0,0,0,5.36.56h8.32c1.6-1.92,2.08-2.48,3.76-4.32,2.56,2.16,3.36,2.8,5.84,5q.48.48.48.72a.52.52,0,0,1-.48.4H257.42a22.86,22.86,0,0,0-4.8.4Zm.08,11a23.21,23.21,0,0,0,5.28.56h8.48c1.6-2,2.08-2.56,3.76-4.4,2.64,2.08,3.36,2.8,5.76,5,.4.4.56.64.56.88s-.24.4-.64.4H257.42a28.21,28.21,0,0,0-4.8.4Zm6.16,34.32a1,1,0,0,1-.88,1,16.3,16.3,0,0,1-3.12.32c-1,0-1.2-.24-1.2-1,.16-4.48.24-10,.24-17.12,0-3-.08-6.24-.24-10.16a50.65,50.65,0,0,1,6.16,4h8.64c1.12-1.44,1.44-1.84,2.64-3.28a46.8,46.8,0,0,1,4.16,3c.72.48,1,.8,1,1,0,.56-.8,1.28-2.48,2.32,0,14.56,0,14.56.16,18.88-.08,1-1,1.28-3.52,1.28-1.12,0-1.44-.16-1.52-.72V68.64h-10Zm0-4.56h10V50.24h-10Zm37-53a66.12,66.12,0,0,1-6.73,9.76,50.29,50.29,0,0,1-13.2,11.68l-.8-1a60.14,60.14,0,0,0,15.52-20.48H284.3a34.48,34.48,0,0,0-5.6.32l-.55-2.72a25.47,25.47,0,0,0,6.15.56h6.57a55.49,55.49,0,0,0,4-12c7,1.36,7.28,1.44,7.84,1.68.72.24,1,.56,1,1,0,.64-.88,1-3.84,1.68-1.6,3.6-2.16,4.8-3.68,7.68h15.28c2-2.32,2.64-3,4.72-5.12,3,2.4,3.84,3.12,6.56,5.6.4.4.56.64.56.88a.53.53,0,0,1-.56.48H303.27a24.4,24.4,0,0,0,5.2,6.48c4.48,4.32,8.88,6.56,16.56,8.8l-.16,1.28c-2.8.4-4.08,1.36-5.36,4.08a37.61,37.61,0,0,1-13.76-12.64c-1.76-2.72-1.84-3-4-8Zm-9.85,26.24a30.16,30.16,0,0,0-6.08.56l-.56-3a32.74,32.74,0,0,0,7,.64h22.88c1.44-1.68,2.8-3.28,4-4.72A67.52,67.52,0,0,1,318.87,39a1,1,0,0,1,.32.64.59.59,0,0,1-.48.48H294.54l-1.11,2.64-2,4.88h16.72c1.36-1.44,1.76-1.92,3.28-3.36,2,1.6,2.56,2.08,4.48,3.76.56.64.72.88.72,1,0,.48-.88,1.12-2.88,2.08-1.68,11.92-2.16,14-3.6,17s-3.76,4.32-10.24,5.44c-.32-2.32-1-3.28-2.64-4.16-1.44-.72-2.88-1-9.77-1.84l.17-1.36c10.4.72,13.52.88,14.72.88,2.48,0,2.72-.24,3.6-2.64a87.2,87.2,0,0,0,2.56-15H290.62a28.42,28.42,0,0,1-2.08,4.32c-.39,1-.87,1.2-2,1.2-2.39,0-3.6-.24-3.6-.72a1.14,1.14,0,0,1,.16-.48,94.9,94.9,0,0,0,6.17-13.68Zm.73-12.16a23.15,23.15,0,0,0,5.6.64h7.76c1.52-2.08,2-2.72,3.6-4.64,2.56,2.24,3.28,3,5.52,5.2.4.4.56.64.56.88s-.24.4-1,.4H291.67a34.83,34.83,0,0,0-4.88.32Z" fill="#001c3e"/><path d="M359.89,72.24A43.71,43.71,0,0,0,372.61,61c5.6-7.44,8.4-16.48,8.4-27,0-7-1.2-13.52-3-16.48a6.55,6.55,0,0,0-5.68-3.52c-4,0-7.68,3.44-10.56,10a45,45,0,0,0-3.76,17.2c0,1.36.08,2.24.32,5a11.27,11.27,0,0,1,.08,1.68c0,1.52-.72,2.4-2.08,2.4-3,0-5-6.48-5-16.4,0-6.64.48-10.8,2.56-21.44a33.38,33.38,0,0,0,.88-5.84c0-2.56-1.12-4.08-4.32-5.68a5,5,0,0,1,1.44-.4,12.42,12.42,0,0,1,6.4,2.64c2.24,1.6,3.12,2.88,3.12,4.48,0,1-.16,1.52-1.12,3-3,5-5.76,16.4-5.76,23.84,0,.72,0,1.52.08,3h.16c2.4-10.24,5.36-16.88,9.28-21,3-3.2,6.16-4.72,9.76-4.72,7.68,0,13.12,9.44,13.12,22.8,0,10.4-2.88,19-8.72,26.16-4.72,5.84-10.08,9.6-17.68,12.64Z" fill="#001c3e"/><path d="M430.85,64.16a10.32,10.32,0,1,1-10.32-10.32A10.35,10.35,0,0,1,430.85,64.16Zm-18.08,0a7.82,7.82,0,0,0,7.76,7.76,7.76,7.76,0,1,0-7.76-7.76Z" fill="#001c3e"/></svg>