<svg id="bb7cee2a-689a-4d95-9f38-e08393efb3bb" data-name="Layer 1" xmlns="http://www.w3.org/2000/svg" width="450.71" height="73.76" viewBox="0 0 450.71 73.76"><path d="M3.44,23a26.07,26.07,0,0,0,7,.8h13.2c1.36-1.68,1.84-2.24,3.2-3.76,2.08,1.76,2.72,2.32,4.72,4,.72.64,1,1,1,1.36,0,.56-.88,1.2-3.12,1.92C25.84,38.16,22.56,44.64,17.6,51,13,57,8.16,61.36.72,66.16l-.72-1C6.48,59.2,10.32,54.8,14.08,48.72c4.4-7,7.2-13.68,9.6-23H10.48a35.39,35.39,0,0,0-6.4.48ZM66.8,20.56a93.29,93.29,0,0,1-16.48,15,53.07,53.07,0,0,0,9.76,12.4c4.88,4.64,8.72,7,15.84,10l-.08,1c-3.92.64-4.48,1.12-6.56,5.36A50.35,50.35,0,0,1,55.76,51.76c-6.48-8.24-10.16-16.48-13-28.56-.64-3-.88-4.24-2.24-11.36l.4,30.88.4,23c0,2.32-.24,3.2-1.12,4.16-1.36,1.44-3.6,2.32-8.48,3.2-.4-2.56-1-3.44-2.64-4.24s-4.4-1.6-10.16-2.56L19,65c9.76.64,9.92.64,15.12.72,1-.08,1.36-.4,1.36-1.36V13.12C35.44,8.24,35.36,6,35,1c9.52,1.44,9.52,1.44,9.52,2.24S43.84,4.4,40.88,5.2c1.36,10.88,4.24,20.64,8.56,28.72a66.13,66.13,0,0,0,6.08-7.36,45.67,45.67,0,0,0,6.72-12.08c6.08,3,8.48,4.48,8.48,5.12s-.72,1-3,1Z" fill="#001c3e"/><path d="M101.31,4.24a25.89,25.89,0,0,1,8.08,1.52c1.6.64,2.24,1.44,2.24,2.56v.16c0,.64-.08.64-.64,2.08-1,2.72-1.76,9.6-1.76,16.24,0,4.72.64,5.92,3.12,5.92,1.68,0,3.44-.64,10.72-4.08a7,7,0,0,1,3.28-1c1.92,0,3.84,1.68,3.84,3.36a2.54,2.54,0,0,1-1.68,2.4,50.57,50.57,0,0,1-5.36,1.68c-9.68,2.72-15,5.12-20,9-4.32,3.36-6.24,6.48-6.24,10.24,0,5.76,4.56,8.72,13.44,8.72a93.37,93.37,0,0,0,18.56-2.32,7.7,7.7,0,0,1,1.6-.24c2.08,0,4.32,2,4.32,3.92,0,1.44-.88,2.16-3.44,2.64a124,124,0,0,1-15.36,1c-5.84,0-10.24-.64-13.6-1.84-5.36-2-8.72-6.56-8.72-11.84,0-4.64,2.56-9,7.84-13.44a51.27,51.27,0,0,1,9.76-6.4,5.4,5.4,0,0,1-3.84-1.2c-1.2-.88-1.92-2.64-2.32-6.08-.24-1.92-.32-3.68-.56-9.68-.24-6.8-.32-8-1-9.2-.88-1.52-2.4-2.32-5.76-2.88A4.24,4.24,0,0,1,101.31,4.24Z" fill="#001c3e"/><path d="M177.74,8.48c1.44-1.76,1.92-2.32,3.36-3.92,2.32,1.92,3.05,2.56,5.44,4.8a.83.83,0,0,1,.25.56c0,.24-.33.4-1,.4H171.66v7.2h7.44c1.52-1.76,2-2.24,3.44-3.84a59.19,59.19,0,0,1,5.21,4.72A1.12,1.12,0,0,1,188,19c0,.24-.23.4-.79.4H177v6.32c0,1,.16,1.2,2.08,1.2h2.4c1,0,1.6-.16,1.92-.56.16-.24.64-1.92,1.52-4.88l.88.08v3.84c0,.8.16,1,1.45,1.52a1.51,1.51,0,0,1,1.11,1.44c0,.88-.71,1.52-2,1.84-.88.24-2.71.32-7.12.32-5.44,0-6.48-.64-6.48-3.84V19.36H166.7c-.88,4.24-1.52,5.76-3.36,8.32-2.64,3.52-5.28,5.2-11.6,7.36l-.48-.88c4.64-2.56,6.64-4.4,8.56-8a16.61,16.61,0,0,0,2.16-6.8H157.1a20.36,20.36,0,0,0-5,.48l-.56-3a20,20,0,0,0,5.6.64h9.68v-7.2h-6.4a27.25,27.25,0,0,0-5.2.56l-.64-3.12a20.87,20.87,0,0,0,5.84.72h6.4V6.64a54.83,54.83,0,0,0-.4-6.64c7.44,1,9,1.28,9,2.16,0,.64-.88,1-3.68,1.52v4.8ZM159.9,39.36a30.58,30.58,0,0,0-5.44.4L154,37a23.27,23.27,0,0,0,5.92.56h6.88v-1.2c0-3.36,0-4.08-.16-6.64,1.84.24,3.36.48,4.32.56,3.12.4,4.08.72,4.08,1.52,0,.64-.8,1-3.44,1.6v4.16h5.76c1.44-1.68,1.92-2.16,3.36-3.76,2.16,1.92,2.8,2.48,4.8,4.48.32.32.4.48.4.64q0,.48-1,.48H171.58V47c4.64-.56,7.52-1,14.8-2.24l.16,1a182.48,182.48,0,0,1-29.44,7.68c-.56,2.32-.88,3-1.52,3-1,0-1.2-.72-2.88-7.92a102.9,102.9,0,0,0,14.08-1V39.36Zm3.52,15.84c-.48,7.12-1.2,10.56-3,14-1.28,2.48-3.36,4.16-5.12,4.16-1.52,0-2.56-1.68-2.56-4.24a2.38,2.38,0,0,1,1.76-2.64,10.66,10.66,0,0,0,4.8-3.76c1.52-2.16,2.16-3.84,2.88-7.68Zm11.76,0c5.28,6.16,6.8,8.8,6.8,12,0,2.32-2.48,5.44-4.48,5.44-.88,0-1.28-.72-1.28-2.56V68.8a50.37,50.37,0,0,0-1.84-13.12Zm27.29-36.72a61.45,61.45,0,0,1-2.16,15c5,5,6.8,7.52,6.8,9.68,0,2.32-1.28,5.2-2.32,5.2-.56,0-1-.48-1.6-2a63,63,0,0,0-4.57-8.56,30.83,30.83,0,0,1-4.47,7.44c-3.28,4.08-6.33,6.56-12.48,10l-.73-1c8.16-6.48,12.16-12.16,14.73-20.8a72.66,72.66,0,0,0-5.77-7l1-.72a58.1,58.1,0,0,1,5.6,4.24,60,60,0,0,0,1-11.6H195a31.48,31.48,0,0,0-5.52.4l-.48-2.8a29.44,29.44,0,0,0,6,.56h2.49l.16-10.8a33.42,33.42,0,0,0-.4-5.6c1.92.24,3.52.48,4.48.64,3.12.4,4.4.8,4.4,1.44s-1,1.12-3.2,1.76c-.24,8.48-.24,8.88-.4,12.56h5.84c1.36-1.44,1.84-1.84,3.12-3.12a42.79,42.79,0,0,1,4.64,3.2c.56.56.8.88.8,1.2,0,.64-.88,1.28-3.12,2.24-.08,2.08-.08,3.76-.08,4.8a57.17,57.17,0,0,0,1.6,13.84,17.31,17.31,0,0,0,3.52,7.2A130.66,130.66,0,0,0,224,33.92l1,.4-2.32,11.6c-.08.8-.24,2.08-.24,2.8s.08,1.12.88,2.8a5.59,5.59,0,0,1,.56,2.48,2.21,2.21,0,0,1-2.24,2.08c-2.56,0-6.24-4.48-9.12-11-2.24-5.2-3.6-13.68-3.6-23V18.48ZM191.58,55.2a36.26,36.26,0,0,1,7.69,7.6A6.78,6.78,0,0,1,201,66.88c0,2.48-2,5.76-3.52,5.76-1,0-1.2-.56-1.93-4.24-1-4.88-1.83-7.2-4.71-12.72Zm16.73,0C218.07,60.56,221,63.12,221,66.32s-1.36,6.08-2.8,6.08c-1,0-1.2-.4-2.88-4.08C213,63,211.59,61,207.51,55.84Z" fill="#001c3e"/><path d="M239,14.8c3.84,3,5.68,3.76,10,3.76a42.4,42.4,0,0,0,8.56-1c1.76-3.44,2.8-6.4,2.8-8.16,0-2.16-1.52-3.44-5.68-4.48A6.35,6.35,0,0,1,258.3,4a16.92,16.92,0,0,1,6.24,1.36c2,.8,2.88,1.68,2.88,2.64,0,.56-.32,1.12-1.27,2.32-.73,1-1.69,2.4-2.33,3.28-1.44,2.32-1.44,2.32-2,3.12,6.72-1.92,8.89-2.88,11.53-5.12a2.24,2.24,0,0,1,1.52-.56c3.12,0,5.36,1.12,5.36,2.64,0,1-1,1.76-3.44,2.56a128.4,128.4,0,0,1-17.45,4.56c-1.44,2-2.4,3.44-4.24,6.24-2.16,3.36-2.8,4.24-4.32,6.4,4.48-2.32,7.28-3.2,10.32-3.2,4.72,0,8.24,3.2,9,8,1.36-.64,1.36-.64,7.85-3.92,7.92-4,9.84-5.28,9.84-6.72s-1.36-2.8-3.68-3.76a3.89,3.89,0,0,1,1.84-.48c3.52,0,9,4.88,9,8.08,0,1.44-.64,2-2.88,2.48-4.8,1.12-15.2,5.12-21.45,8.24.09,2.56.09,3,.09,6.48,0,3.6-.25,6.08-.65,6.88A2.52,2.52,0,0,1,267.82,57a2.4,2.4,0,0,1-2.56-2.4,8.72,8.72,0,0,1,.08-1.36,74.09,74.09,0,0,0,.56-8.56c-5,2.72-7.28,4.32-9.36,6.32-2.64,2.56-3.92,5-3.92,7.44,0,4.32,4.4,6.4,13.36,6.4a57.92,57.92,0,0,0,16.09-2.24,5.85,5.85,0,0,1,1.52-.24c2.48,0,5.6,2.24,5.6,4,0,1-.88,1.84-2.48,2.16a89,89,0,0,1-14.33,1.12c-7.52,0-13-.8-16.24-2.32-4.08-1.92-5.92-4.56-5.92-8.48,0-3.76,1.84-7.2,5.76-11,2.08-2,4.64-3.84,9.92-7.12-.08-3.36-.32-4.64-1.12-6.32a4.55,4.55,0,0,0-4.08-2.4c-5.28,0-11.6,4.24-17.36,11.6-1.52,2.08-2.16,2.56-3,2.56-1.28,0-2.16-1.68-2.16-4.24,0-1.68.08-1.76,2.32-3.6,5.68-4.48,9.2-8.64,14.88-17.2a30.33,30.33,0,0,1-5.36.48c-5.44,0-8.24-1.44-11.92-6.16Z" fill="#001c3e"/><path d="M323.75,17.52a52.05,52.05,0,0,1,3.68-4.64,67.32,67.32,0,0,1,6.08,5.68.69.69,0,0,1,.24.48c0,.16-.24.32-.56.32H321.27V25c4.4,3.44,7.12,7.12,7.12,9.68,0,1.84-1.68,4.4-2.8,4.4-.56,0-.88-.56-1-1.68-.64-4.72-2-9.12-3.28-11V60c0,5.28,0,7,.16,12.16v.4a.74.74,0,0,1-.56.72,16,16,0,0,1-4,.48c-.88,0-1.2-.24-1.2-1v-.16c.4-7,.48-8.88.72-15.68l.4-17,.48-11.68a84.77,84.77,0,0,1-5.2,14.56A54.24,54.24,0,0,1,304.87,55L304,54.4c3.2-6.16,5.28-11.44,8.24-21.28a82.46,82.46,0,0,0,3.28-13.76h-4.32a33.11,33.11,0,0,0-5.36.32L305.59,17a22.19,22.19,0,0,0,5.6.56h4.48V7.92c0-1.52,0-2.32-.24-7.28,8.64,1,9.2,1.2,9.2,2.08s-.72,1.2-3.36,1.92V17.52ZM369,68.08c1.92-2.56,2.48-3.28,4.48-5.6a53.61,53.61,0,0,1,7.12,6.32,1,1,0,0,1,.32.64.53.53,0,0,1-.56.48H332.87c-5.6.08-5.6.08-6.88.4l-.32-3a38.87,38.87,0,0,0,7.2.8ZM349.75,7.44c-2.8,6.24-2.8,6.24-5.2,11.12h6.8a21.15,21.15,0,0,1,2.88-3.12c1.68,1.28,2.24,1.68,4,3.12.64.56,1,.88,1,1.2,0,.56-.64,1-2.56,1.92-1.28,24.72-1.6,28.08-3.28,36.24-.64,3-1.44,4.64-2.88,5.44-1.12.64-1.92.88-6,1.76-.4-3.6-1.6-4.24-9-5.28l.08-1.36c3,.32,7.52.56,9,.56,3.44,0,3.52,0,3.92-.88.56-1.52,1.68-9.44,2.32-16.56.72-8.88,1-13.6,1-21.2h-8.08l-1,2a1.61,1.61,0,0,1-1.76,1c-2.32,0-3.36-.24-3.36-.8a1.74,1.74,0,0,1,.32-.8c3.84-7.68,3.92-7.76,6.8-14.32H335a30.86,30.86,0,0,0-5.28.4L329.27,5A32.33,32.33,0,0,0,335,5.6h32.16c1.84-2.32,2.48-3,4.4-5.2a57,57,0,0,1,7.12,5.92A2.28,2.28,0,0,1,379,7c0,.32-.32.48-.72.48Zm-9.44,21.2a25.89,25.89,0,0,1,2.32-2.72,23,23,0,0,1,3.52,2.72c.56.48.8.8.8,1.12s-.16.56-2.08,1.92v7.84c.08,7.68.08,8.24.16,12.72v.24c0,.24-.16.4-.48.56a16.86,16.86,0,0,1-3.28.48.59.59,0,0,1-.64-.64v-2.4h-6.56v3.76c0,.72-.48,1-2.16,1a5.3,5.3,0,0,0-1.2.08h-.16c-.56,0-.8-.24-.8-.72V54.4c.16-5.2.24-14,.24-19.84,0-3.76,0-3.92-.24-9.28,2.4,1.44,3.12,1.92,5.28,3.36Zm-6.24,20h6.56V30.48h-6.56Zm34.56-24.56c1.28-1.68,1.68-2.16,3-3.68a41.89,41.89,0,0,1,4.32,3.36c.64.48.88.88.88,1.12,0,.72-.8,1.28-2.8,2.08-1.6,7.68-2.64,11.2-4.88,16.56,5,5.6,6.8,8.32,6.8,10.4,0,2.48-1.36,5.44-2.48,5.44-.8,0-1-.4-2.16-3.44a62.7,62.7,0,0,0-4.08-8.4c-4,7.6-7.2,11.92-12.4,16.64l-.64-.64c5.2-6.8,7.36-11,10.56-20-1.44-2.08-1.92-2.72-6.48-8.72l.8-.72a78.61,78.61,0,0,1,6.88,6c2.08-6.64,2.56-9,3-14.16h-6a22.13,22.13,0,0,0-4.64.32l-.24-2.64a17,17,0,0,0,4.88.48Z" fill="#001c3e"/><path d="M397.91,11.2c3.12,2.32,5,4.4,6.16,6.56a42.81,42.81,0,0,1,2.48,8.4c5.52-3,9.6-4.16,16.72-5a38.33,38.33,0,0,0,1.52-9.36c0-2-.88-2.64-3.76-2.64h-1.52l-.24-.88a13.14,13.14,0,0,1,5.12-1.36c3,0,6.32,2.56,6.32,4.88,0,1.44-1.2,6-2.4,9.28,13.28.56,22.4,9.12,22.4,21.12,0,8.88-5.12,16.48-14.56,21.44a42.84,42.84,0,0,1-15.68,4.64l-.32-1.12c6.88-2.08,11.28-4.4,15.52-8,5.76-5,8.8-11.36,8.8-18.32,0-6.16-2.48-11.28-6.88-14.4-2.88-2-5.68-2.88-10-3.12a100.07,100.07,0,0,1-13.44,25c1.12,1.68,1.52,2.24,2.88,4,2.32,2.88,2.48,3.2,2.48,4.16a1.87,1.87,0,0,1-1.92,1.76c-1.84,0-4.32-2.16-6.88-5.84a31.5,31.5,0,0,1-6.16,5.92c-2.64,2-4.48,2.88-6.4,2.88s-2.72-1-3.52-4.08a13,13,0,0,0-2.4-5.2A7.63,7.63,0,0,1,390.39,47c0-6.32,4.56-13.12,12.56-18.64-1.44-9.12-2.32-11.68-6.08-16.32Zm-.32,27.52a19.08,19.08,0,0,0-2.72,9.44c0,3.6,2.24,7.68,4.16,7.68s5.84-2.8,9.68-6.88c-2.24-5.2-3.28-8.88-5-17.28A25.35,25.35,0,0,0,397.59,38.72Zm14.48,6.08a75.42,75.42,0,0,0,10.48-21.28c-6.88,1-10.56,2.4-15.44,5.76C409.51,38.64,410.15,40.64,412.07,44.8Z" fill="#001c3e"/></svg>