<?xml version="1.0" encoding="utf-8"?>
<!-- Generator: Adobe Illustrator 26.0.1, SVG Export Plug-In . SVG Version: 6.00 Build 0)  -->
<svg version="1.1" id="b8cdebd5-bee9-4661-81a4-e4b12a2ebd5e"
	 xmlns="http://www.w3.org/2000/svg" xmlns:xlink="http://www.w3.org/1999/xlink" x="0px" y="0px" width="319px" height="19.7px"
	 viewBox="0 0 319 19.7" style="enable-background:new 0 0 319 19.7;" xml:space="preserve">
<style type="text/css">
	.st0{fill:#FFFFFF;}
</style>
<path class="st0" d="M7.2,1.7c3.6,0.9,4.5,1.3,4.5,2.4c0,0.8-0.4,1.5-0.9,1.5c-0.2,0-0.3-0.1-1.2-1.4C8.8,3.3,7.9,2.5,7,1.9
	C6.2,3,5.3,4,4.2,4.8C4.6,4.8,5,4.9,5.4,4.9H7c0.5-0.5,0.6-0.7,1.1-1.3C8.8,4.2,9,4.4,9.6,5c0,0,0.1,0.1,0.1,0.2
	c0,0.1-0.1,0.2-0.2,0.2H5.4c-0.4,0-0.7,0-1.1,0.1L4.2,4.8c-0.4,0.4-0.9,0.7-1.4,1c0.6,0.3,1.2,0.6,1.7,1h4c0.4-0.5,0.6-0.6,1-1.1
	c0.8,0.5,1,0.6,1.7,1.1c0.2,0.2,0.2,0.2,0.2,0.4s-0.1,0.3-0.7,0.6v1.5c0,1.1,0,1.7,0.1,2.9c0,0.4-0.3,0.5-1.6,0.5
	c-0.4,0-0.5-0.1-0.5-0.3V12H4.1c-0.1,0.4-0.2,0.8-0.4,1.1c0.4,0.2,0.7,0.4,1.5,0.9h3.5c0.4-0.5,0.6-0.6,1-1.1
	c0.7,0.5,0.9,0.6,1.6,1.1c0.2,0.1,0.3,0.2,0.3,0.3s-0.1,0.2-0.6,0.6c0,1.6,0,2.1,0.1,3.9c0,0.5-0.2,0.6-1.7,0.6
	c-0.4,0-0.5-0.1-0.5-0.4v-0.6H5.1V19c0,0.5-0.2,0.5-1.5,0.5c-0.5,0-0.6-0.1-0.6-0.5c0-1.5,0-2,0-3.1v-1.1C2.2,16,1.3,17.1,0.2,18
	L0,17.8c1.8-2.6,2.3-4.9,2.3-10c0-0.7,0-1,0-1.6C1.6,6.6,0.9,6.9,0.2,7.3L0,7.1c1.3-1,2.5-2.3,3.4-3.7c0.7-1,1.2-2,1.6-3.1
	C8.2,1,8.2,1,8.2,1.2S7.9,1.5,7.3,1.5L7.2,1.7z M4.4,9.5c0,0.7-0.1,1.4-0.2,2.1h4.4V9.5H4.4z M8.6,9.1V7.2H4.5c0,1,0,1.6,0,1.8H8.6z
	 M5.1,18h3.8v-3.5H5.1V18z M15.5,2.7c0,0.2-0.1,0.3-0.8,0.5v2.7c0,2.3,0,3.5,0.1,8.2v0.1c0,0.2-0.1,0.4-0.2,0.5
	c-0.4,0.1-0.9,0.2-1.3,0.2c-0.6,0-0.7-0.1-0.7-0.6c0.1-1.9,0.1-3.7,0.1-10.1c0-0.6-0.1-1.4-0.1-2.2C15.2,2.3,15.5,2.4,15.5,2.7z
	 M16.5,2.6c0-0.7,0-1.3-0.1-2c0.8,0.1,1.3,0.1,1.7,0.2c1.3,0.1,1.5,0.2,1.5,0.5s-0.2,0.3-0.8,0.5V12l0.1,5.4c0,1-0.2,1.4-1,1.7
	c-0.7,0.3-1.4,0.4-2.1,0.5c-0.2,0-0.2,0-0.2-0.4c0-1.1-0.6-1.5-2.9-2.1v-0.3c1.6,0.1,2.2,0.1,3.5,0.2c0.3,0,0.4-0.1,0.4-0.3
	L16.5,2.6z"/>
<path class="st0" d="M44.8,4.7c2.7,1,2.7,1,2.7,1.2s-0.2,0.3-0.8,0.3c0,0-0.1,0-0.1,0c-1.8,1.2-1.8,1.2-2.3,1.6h3.3l1.5-1.5
	C49.6,6.9,50.3,7.4,51,8c0.1,0.1,0.1,0.1,0.1,0.2S51,8.3,50.9,8.3h-7.8v1.9h3.2c0.6-0.6,0.8-0.8,1.4-1.4c0.9,0.6,1.1,0.8,2,1.5
	c0.1,0,0.1,0.1,0.1,0.2c0,0.1-0.1,0.1-0.2,0.1h-6.5v2h4.8c0.7-0.7,0.9-0.9,1.5-1.5c0.9,0.7,1.2,0.9,2.1,1.7c0.1,0.1,0.1,0.1,0.1,0.2
	S51.6,13,51.4,13h-8c0.7,0.7,1.5,1.3,2.4,1.8c2,0.8,4,1.3,6.2,1.4v0.3c-0.7,0.3-1.1,0.7-1.5,1.8c-0.1,0.4-0.2,0.4-0.3,0.4
	c-0.8-0.2-1.6-0.5-2.3-0.8c-2-1-3.7-2.5-4.8-4.5v2.1c0,1,0,1.8,0.1,3.7c0,0.4-0.3,0.5-1.6,0.5c-0.7,0-0.8-0.1-0.8-0.4
	c0-1.1,0.1-3.2,0.1-3.6v-1.3c-1.2,1.2-2.6,2.2-4.1,3c-1.4,0.7-2.8,1.2-4.3,1.5l-0.1-0.2c1.7-0.8,3.3-1.9,4.7-3.2
	c0.8-0.7,1.5-1.5,2.2-2.4h-4.6c-0.5,0-1,0-1.5,0.1L33,12.4c0.5,0.1,1.1,0.2,1.6,0.2h6.3v-2h-4.4c-0.5,0-1.1,0-1.6,0.1l-0.1-0.8
	c0.6,0.1,1.2,0.2,1.8,0.2h4.4V8.2h-5.6c-0.5,0-0.9,0-1.4,0.1l-0.1-0.8c0.5,0.1,1,0.2,1.5,0.2h3.6c-0.2-0.2-0.3-0.4-0.3-0.6
	c-0.1-0.8-0.5-1.6-1-2.3l0.2-0.2h-3.5c-0.5,0-1,0-1.5,0.1L32.6,4c0.5,0.1,1.1,0.2,1.6,0.2h5v-2c0-0.7,0-1.4-0.1-2
	c0.9,0,1.8,0.1,2.7,0.3C42,0.5,42,0.6,42,0.7S41.9,1,41.3,1.1v3.1h1.5v-2c0-0.8,0-1.2-0.1-2c2.6,0.2,2.9,0.2,2.9,0.5
	S45.5,1,44.9,1.2v3h0.8C46.4,3,47,1.7,47.4,0.4c2.2,0.8,2.9,1.1,2.9,1.3S50,2,49.4,2h-0.2c-0.9,0.8-1.8,1.5-2.8,2.2h2.1
	c0.6-0.7,0.6-0.7,1.4-1.5c0.9,0.7,1.2,0.9,2.1,1.7c0.1,0,0.1,0.1,0.1,0.2c0,0.1-0.1,0.1-0.3,0.1L44.8,4.7z M34.8,0.5
	C37.2,1.3,38,1.9,38,2.7c0,0.7-0.6,1.4-1.3,1.5c-0.4,0-0.6-0.2-0.7-0.8c-0.3-1-0.7-1.9-1.4-2.7L34.8,0.5z M37.7,4.7
	c2.1,0.7,2.9,1.3,2.9,2c0,0.5-0.3,0.9-0.7,1.2h3.3c0.6-1,1.1-2,1.4-3.1L37.7,4.7z"/>
<path class="st0" d="M71.1,7.6c2.5-0.1,4.6,1.8,4.7,4.3c0,0.2,0,0.3,0,0.5c0.2,2.8-2,5.2-4.8,5.4c-0.2,0-0.4,0-0.6,0
	c-3.6,0-5.5-2.6-5.5-7.5c-0.1-2.3,0.4-4.6,1.7-6.6c1-1.3,2.6-2.1,4.3-2c2.5,0,4.4,1.1,4.4,2.6c0,0.8-0.6,1.2-1.5,1.2
	c-0.4,0-0.8-0.1-1.2-0.4c-0.1-0.2-0.1-0.2-0.2-1.1c-0.1-1.2-0.7-1.8-1.7-1.8c-1.3,0-2.2,1-2.6,2.8c-0.3,1.3-0.4,2.7-0.4,4
	C68.6,8.1,69.8,7.6,71.1,7.6z M68.1,9.8c-0.3,0.7-0.5,1.4-0.4,2.1c0,1.3,0.2,2.6,0.7,3.8c0.3,0.9,1.2,1.5,2.1,1.6
	c1.6,0,2.6-1.8,2.6-4.8c0-2.6-1-4.2-2.6-4.2C69.4,8.4,68.5,8.9,68.1,9.8L68.1,9.8z"/>
<path class="st0" d="M90.4,3.9c1.7-2.2,4.8-2.7,7.1-1.1c0.4,0.3,0.8,0.7,1.1,1.1c1.1,1.8,1.6,3.9,1.5,6c0.1,2.1-0.4,4.2-1.5,5.9
	c-1.6,2.2-4.7,2.8-7,1.2c-0.4-0.3-0.8-0.7-1.2-1.2c-1.1-1.8-1.6-3.9-1.5-5.9C88.8,7.8,89.3,5.7,90.4,3.9z M92.3,15.5
	c0.5,1.2,1.2,1.8,2.1,1.8s1.8-0.7,2.3-2.2c0.4-1.7,0.6-3.5,0.6-5.3c0.1-1.9-0.1-3.8-0.7-5.7c-0.5-1.2-1.2-1.8-2.2-1.8
	c-2,0-2.8,2.3-2.8,7.5C91.6,11.7,91.8,13.7,92.3,15.5z"/>
<path class="st0" d="M124.9,8h2.2l1.5-1.7c1,0.8,1.3,1,2.3,1.8c0,0.1,0.1,0.1,0.1,0.2c0,0.1-0.1,0.2-0.2,0.2h-5.9v5.1h3.2
	c0.7-0.8,1-1,1.7-1.8c1,0.8,1.4,1.1,2.3,1.9c0.1,0,0.1,0.1,0.1,0.2c0,0.1-0.1,0.1-0.2,0.1h-7.1v1.9c0,0.3,0,1.9,0.1,3.2
	c0,0.4-0.1,0.5-0.3,0.6c-0.5,0.1-0.9,0.2-1.4,0.1c-0.7,0-0.9-0.1-0.9-0.4v-0.1c0.1-2.4,0.1-2.8,0.1-3.3v-2H115
	c-0.3,0-1.4,0.1-1.8,0.1l-0.1-0.7c0.6,0.1,1.3,0.2,1.9,0.2h1.4V9.1c0-1.2,0-1.6-0.1-2.7c1.2,0.7,1.6,0.9,2.7,1.5h3.6V4h-4.1
	c-1.4,1.9-3.1,3.5-5,4.8l-0.2-0.2c1.2-1.4,2.1-3,2.9-4.7c0.6-1.2,1-2.4,1.3-3.7c1.2,0.3,2.3,0.6,3.4,1.1c0.1,0.1,0.1,0.1,0.1,0.2
	c0,0.2-0.1,0.3-1.1,0.4c-0.3,0.5-0.7,1-1.1,1.5h8.8c0.5-0.6,1.1-1.2,1.6-1.8c1.1,0.8,1.4,1,2.5,1.9c0.1,0,0.1,0.1,0.1,0.2
	c0,0.1-0.1,0.2-0.2,0.2h-6.6L124.9,8z M118.7,8.4v5.1h3.8V8.4L118.7,8.4z"/>
<path class="st0" d="M153.2,17.9c1.9-0.5,3.7-1.6,5.1-3c1.4-1.5,2.1-3.5,2.1-5.5c0-3.6-2.2-5.7-5.8-5.7c-0.3,0-0.6,0-0.8,0
	c0.6,0.6,1,1.4,1,2.2c0,1.7-1.1,4.6-2.6,7.2c-1.4,2.3-2.6,3.4-3.6,3.4c-0.5,0-0.9-0.2-1.1-0.6c-0.2-0.4-0.4-0.9-0.5-1.4
	c-0.2-0.6-0.5-1.1-0.9-1.6c-0.5-0.7-0.8-1.5-0.8-2.4c0.1-1.5,0.7-3,1.8-4.1c2-2.2,4.9-3.5,7.9-3.4c4.7,0,8,3,8,7.1
	c0,3-1.9,5.8-4.7,6.9c-1.5,0.7-3.2,1.1-4.9,1.3L153.2,17.9z M149.3,5.9c-1.4,1.3-2.2,3.1-2.2,5c0,1.4,0.7,2.9,1.4,2.9
	s2.1-1.8,3.4-4.3c0.9-1.4,1.4-3,1.7-4.6c0-0.2,0-0.5-0.1-0.7c0-0.2-0.1-0.3-0.2-0.5C151.8,4,150.4,4.8,149.3,5.9L149.3,5.9z"/>
<path class="st0" d="M184.6,3.5V2.2c0-0.6,0-1.2-0.1-1.8c2.6,0.2,3.4,0.4,3.4,0.6s-0.3,0.4-0.9,0.5v2h4.9c0.5-0.6,0.7-0.8,1.3-1.4
	c1.1,0.8,1.4,1.1,2.4,2c0.1,0.2,0.2,0.3,0.2,0.4c0,0.1-0.1,0.2-0.2,0.2c-0.3,0.1-0.5,0.2-0.8,0.2c-0.1,0-0.3,0-0.6,0
	c-2.4,1.5-2.4,1.5-3.3,2l-0.2-0.1c0.5-0.9,0.9-1.9,1.3-2.8h-12.6v0.3c0,2-0.8,3.5-2,3.5c-0.7,0-1.2-0.7-1.2-1.6
	c-0.1-0.4,0.2-0.9,0.6-1c0.7-0.2,1.2-0.8,1.6-1.4c0.3-0.6,0.4-1.2,0.5-1.8h0.2c0.2,0.5,0.3,1.1,0.4,1.7L184.6,3.5z M191.1,9.4
	c-0.4,1.9-1.3,3.7-2.5,5.2c0.6,0.2,2,0.6,2.8,0.9c0.7,0.3,1.3,0.7,1.9,1.2c0.3,0.4,0.4,0.8,0.4,1.3c0,0.8-0.4,1.5-0.8,1.5
	c-0.3-0.1-0.6-0.3-0.9-0.5c-1-0.9-2-1.7-3.2-2.4c-0.9-0.6-1.1-0.6-1.4-0.8c-1.3,1.2-2.9,2.1-4.6,2.6c-2,0.7-4.1,1-6.2,1.2v-0.2
	c2-0.4,3.9-1.1,5.8-2.1c1.2-0.6,2.3-1.4,3.3-2.4c-1.1-0.5-2.3-1-3.5-1.3c-0.1,0.1-0.1,0.1-0.3,0.5s-0.3,0.4-0.6,0.9
	c-0.1,0.1-0.2,0.2-0.4,0.2c-0.6,0-1.3-0.1-1.9-0.3c-0.1,0-0.1-0.1-0.1-0.1c0-0.1,0-0.1,0-0.2c1.1-1.6,2-3.3,2.9-5.1h-3.5
	c-0.5,0-1,0-1.5,0.1l-0.1-0.7c0.5,0.1,1.1,0.1,1.6,0.1h3.8c0.7-1.4,1.3-2.8,1.6-4.3c3.1,0.6,3.1,0.6,3.1,0.9s-0.2,0.3-1,0.5
	c-0.5,1.3-0.8,1.8-1.2,2.9h7l1.7-1.8c1.1,0.8,1.4,1.1,2.5,2c0.1,0,0.1,0.1,0.1,0.1c0,0.1-0.1,0.1-0.1,0.1c0,0,0,0,0,0L191.1,9.4z
	 M184.3,9.4c-0.9,1.9-0.9,1.9-2,3.8c0.6,0.1,0.6,0.1,1.6,0.3c0.6,0.1,1,0.2,1.4,0.3c0.8,0.2,0.8,0.2,1.1,0.2c1-1.4,1.7-2.9,2.1-4.6
	L184.3,9.4z"/>
<path class="st0" d="M210.5,7.6c0.2,1.1,0.3,2.2,0.3,3.3c0.1,1.4-0.3,2.9-1,4.1c-0.3,0.5-0.7,0.8-1.3,0.9c-0.7,0-1.2-0.8-1.2-1.9
	c0-0.3,0.1-0.6,0.3-0.9c0.2-0.2,0.5-0.5,0.7-0.6c0.7-0.7,1.2-1.5,1.5-2.4c0.2-0.8,0.4-1.6,0.4-2.4L210.5,7.6z M212.8,7.9
	c0-1.4,0-2.4-0.1-3.2c3.2,0.4,3.4,0.5,3.4,0.8s-0.2,0.3-0.9,0.6v10.3c0,0.5,0,0.5,2.7,0.5c1.8,0,2.1-0.1,2.4-0.5
	c0.6-1.6,1.1-3.3,1.5-5h0.3l-0.2,4.5V16c0,0.3,0.1,0.4,0.5,0.5c0.5,0.1,0.8,0.5,0.8,1c0,0.7-0.5,1.2-1.5,1.3c-1.5,0.1-3,0.2-4.5,0.2
	c-2.7,0-3.5-0.1-4-0.4s-0.5-0.6-0.6-1.3v-3.2L212.8,7.9z M213.3,0.7c5.2,0.8,6.6,1.5,6.6,3.2c0,1-0.4,1.8-0.9,1.8
	c-0.3,0-0.5-0.1-0.8-0.5c-1.4-1.7-3.1-3.2-5-4.2L213.3,0.7z M222.1,7.3c3,2.2,4.6,4.1,4.6,5.3s-0.9,2.5-1.8,2.5
	c-0.4,0-0.6-0.2-0.7-1c-0.3-2.4-1.1-4.7-2.3-6.8L222.1,7.3z"/>
<path class="st0" d="M244,0.8c0.7,0,1.5,0.2,2.1,0.4c0.8,0.3,1.2,0.7,1.2,1.1c0,0.2,0,0.2-0.2,0.7c-0.5,1.4-0.7,2.9-0.6,4.4
	c0,0.7,0.2,1,0.7,1c0.7-0.1,1.3-0.3,1.9-0.7c0.6-0.3,1.2-0.6,1.9-0.6c0.7,0,1.4,0.6,1.4,1.3c0,0.4-0.2,0.7-0.6,0.9
	c-0.7,0.3-1.4,0.5-2.1,0.6c-1.9,0.4-3.7,1.1-5.3,2.2c-0.9,0.5-1.4,1.4-1.5,2.4c0,1.3,1.1,2,3.1,2c1.7,0,3.4-0.3,5-0.7
	c0.2-0.1,0.5-0.1,0.7-0.1c0.6,0,1.1,0.3,1.5,0.7c0.3,0.2,0.4,0.6,0.4,0.9c0,0.5-0.4,0.8-1.1,1c-1.4,0.2-2.8,0.3-4.2,0.3
	c-1.5,0.1-2.9-0.1-4.3-0.6c-1.4-0.5-2.3-1.9-2.3-3.4c0-2,1.7-3.9,4.9-5.6c0,0-0.1,0-0.1,0c-0.4,0-0.8-0.2-1.1-0.4
	c-0.5-0.5-0.6-1.1-0.7-3.8c0-0.9,0-1.9-0.3-2.8c-0.2-0.5-0.7-0.7-1.6-0.9C243.1,0.8,243.5,0.7,244,0.8z"/>
<path class="st0" d="M267,11c1.1-1.8,2-3.8,2.7-5.8c0.6-1.6,1.1-3.3,1.3-5c3.1,0.7,3.4,0.8,3.4,1.1s-0.2,0.3-0.8,0.4
	c-0.7,1.7-1.6,3.4-2.6,5l1.1,0.2c0.3,0,0.5,0.2,0.5,0.3s-0.1,0.2-0.7,0.5V19c0,0.2-0.1,0.4-0.3,0.5c-0.5,0.1-1,0.2-1.5,0.2
	c-0.4,0-0.6-0.1-0.6-0.2c0-0.1,0-0.2,0-0.3c0.1-1.9,0.1-5.5,0.1-6.7V8.5c-0.7,1-1.5,1.8-2.4,2.7L267,11z M273,4.4
	c0.6,0.1,1.2,0.2,1.8,0.2h8c0.7-0.8,0.9-1,1.6-1.7c1.1,0.8,1.5,1,2.5,1.8c0.1,0.1,0.1,0.2,0.1,0.2S286.9,5,286.8,5h-12
	c-0.6,0-1.1,0-1.7,0.1L273,4.4z M274,7.2c0.6,0.1,1.1,0.2,1.7,0.2h6.2l1.5-1.6c1.1,0.7,1.4,1,2.4,1.7c0.1,0.1,0.1,0.2,0.1,0.2
	s-0.1,0.2-0.2,0.2h-10c-0.5,0-1,0-1.5,0.1L274,7.2z M274,10c0.5,0.1,1.1,0.2,1.7,0.2h6.3c0.6-0.7,0.8-0.9,1.5-1.7
	c1,0.8,1.4,1,2.4,1.7c0.1,0.1,0.1,0.1,0.1,0.2c0,0.1-0.1,0.1-0.2,0.1h-10c-0.5,0-1,0-1.5,0.1L274,10z M276.6,18.9
	c0,0.2-0.1,0.4-0.2,0.4c-0.4,0.2-0.9,0.3-1.4,0.2c-0.6,0-0.8-0.1-0.8-0.5c0.1-2.2,0.1-2.4,0.1-3.6c0-1.2,0-2.5-0.1-3.7
	c0.9,0.4,1.8,0.8,2.6,1.3h5.4c0.5-0.6,0.7-0.7,1.2-1.2c0.8,0.5,1.1,0.7,1.8,1.3c0.2,0.2,0.3,0.3,0.3,0.4s-0.2,0.3-0.8,0.6v0.9
	c0,0.9,0,2.2,0.1,4c0,0.2,0,0.4-0.1,0.4c-0.5,0.2-1,0.3-1.5,0.3c-0.6,0-0.8-0.1-0.8-0.4v-0.9h-5.9L276.6,18.9z M274.6,1.6
	c0.6,0.1,1.1,0.2,1.7,0.2h5.5c0.7-0.7,0.9-0.9,1.5-1.6c1.1,0.7,1.4,0.9,2.3,1.7c0.1,0.1,0.2,0.2,0.2,0.2s-0.1,0.2-0.3,0.2h-9.1
	c-0.5,0-1.1,0-1.6,0.1L274.6,1.6z M276.6,17.7h5.9v-4.3h-5.9V17.7z"/>
<path class="st0" d="M305.1,10.6v1.5c0.9,0.3,1.8,0.7,2.6,1.3c0.5,0.3,0.8,0.8,0.8,1.4c0,0.8-0.5,1.5-1,1.5c-0.3,0-0.5-0.2-0.6-0.7
	c-0.2-0.6-0.5-1.1-0.7-1.6c-0.3-0.5-0.6-1-1-1.4V14c0,1.3,0,1.3,0.1,5.1v0.1c0,0.4-0.3,0.5-1.5,0.5c-0.5,0-0.6-0.1-0.6-0.4
	c0-1.2,0.1-3.6,0.1-4.2v-1.2c-1.2,1.6-2.7,2.9-4.5,3.9l-0.2-0.2c1.9-2,3.4-4.3,4.4-6.9h-1.2v0.5c0,0.4-0.2,0.5-1.2,0.5
	c-0.6,0-0.7-0.1-0.7-0.4c0-1.4,0.1-2.1,0.1-3.2c0-1.5,0-2.3-0.1-3.3c0.9,0.5,1.2,0.6,2.1,1.1h1.2V3.7h-2.6c-0.4,0-0.9,0-1.3,0.1
	l-0.1-0.7c0.5,0.1,0.9,0.2,1.4,0.2h2.6c0-1,0-2-0.1-3c0.6,0.1,1.1,0.1,1.4,0.2c1.2,0.1,1.5,0.2,1.5,0.4s-0.2,0.3-0.8,0.5v2h1.1
	c0.5-0.6,0.6-0.8,1.2-1.4c0.8,0.7,1,0.9,1.8,1.5c0.1,0.1,0.1,0.2,0.1,0.2s-0.1,0.1-0.2,0.1h-4v2.2h1.3l1-1c0.5,0.3,1,0.7,1.4,1.1
	c0.1,0.1,0.2,0.2,0.2,0.3s-0.1,0.3-0.6,0.5c0,1.5,0,1.5,0,4.3c0,0.2,0,0.3-0.1,0.3s-0.5,0.2-1.1,0.2s-0.7-0.1-0.7-0.4v-0.5
	L305.1,10.6z M303.2,6.3h-1.4v3.9h1.4L303.2,6.3z M306.5,6.3h-1.5v3.9h1.5V6.3z M311.6,14.9c0,0.3-0.1,0.4-0.5,0.4l1.2,0.6
	c1,0.5,1.3,0.7,1.3,0.9s-0.2,0.3-0.5,0.3c-0.2,0-0.4,0-0.6-0.1c-1.9,1.3-4,2.2-6.3,2.6l-0.1-0.3c1.9-1,3.6-2.4,4.9-4.1
	c-0.2,0-0.6,0-0.8,0c-0.6,0-0.7-0.1-0.7-0.5c0.1-2.2,0.1-4.1,0.1-7.1c0-2,0-3.2-0.1-4.3c1,0.5,1.4,0.7,2.3,1.2h0.3
	c0.2-0.9,0.3-1.8,0.3-2.7h-2.5c-0.4,0-0.8,0-1.2,0.1l-0.1-0.7c0.5,0.1,0.9,0.2,1.4,0.2h5.5c0.6-0.7,0.8-0.9,1.4-1.6
	c1,0.7,1.2,0.9,2.1,1.7c0.1,0.1,0.1,0.2,0.1,0.2S319,2,318.9,2h-3.8c-0.7,1-1.5,1.9-2.3,2.7h2.6c0.5-0.6,0.6-0.7,1.1-1.3
	c0.7,0.5,0.9,0.7,1.5,1.2c0.1,0.1,0.2,0.2,0.2,0.3s-0.2,0.3-0.6,0.6V8c0,1.8,0,1.8,0.1,6.7c0,0.1,0,0.2-0.1,0.4
	c-0.1,0.2-0.6,0.3-1.4,0.3c-0.6,0-0.8-0.1-0.8-0.4v-0.3h-3.9L311.6,14.9z M315.5,5.2h-3.9v2.5h3.9V5.2z M311.6,8.1v2.7h3.9V8.1
	H311.6z M311.6,11.2v2.9h3.9v-2.9H311.6z M313.8,15.4c3.7,0.6,4.9,1.3,4.9,2.5c0,0.8-0.5,1.6-1,1.6c-0.3,0-0.4-0.1-0.8-0.8
	c-0.8-1.3-1.9-2.3-3.1-3.2L313.8,15.4z"/>
</svg>
